<?xml version="1.0" encoding="UTF-8"?>
<svg width="206px" height="142px" viewBox="0 0 206 142" version="1.1" xmlns="http://www.w3.org/2000/svg" xmlns:xlink="http://www.w3.org/1999/xlink">
    <title>暂无数据</title>
    <defs>
        <linearGradient x1="50.4102564%" y1="0.173469388%" x2="50.4102564%" y2="50.1734694%" id="linearGradient-1">
            <stop stop-color="#A9A9A9" stop-opacity="0.15" offset="0%"></stop>
            <stop stop-color="#A9A9A9" stop-opacity="0" offset="100%"></stop>
        </linearGradient>
        <linearGradient x1="75.2949225%" y1="-6.5767749%" x2="28.511427%" y2="90.1210787%" id="linearGradient-2">
            <stop stop-color="#D3E9FF" offset="0%"></stop>
            <stop stop-color="#277FFF" stop-opacity="0.4" offset="100%"></stop>
        </linearGradient>
        <linearGradient x1="0.180505415%" y1="49.929078%" x2="100%" y2="49.929078%" id="linearGradient-3">
            <stop stop-color="#487FFF" stop-opacity="0.7" offset="0%"></stop>
            <stop stop-color="#477FFF" offset="4%"></stop>
            <stop stop-color="#277FFF" offset="100%"></stop>
        </linearGradient>
        <linearGradient x1="0%" y1="49.9856775%" x2="100%" y2="49.9856775%" id="linearGradient-4">
            <stop stop-color="#94C5FF" offset="0%"></stop>
            <stop stop-color="#277FFF" stop-opacity="0.7" offset="100%"></stop>
        </linearGradient>
        <linearGradient x1="0%" y1="50%" x2="100%" y2="50%" id="linearGradient-5">
            <stop stop-color="#487FFF" stop-opacity="0.2" offset="0%"></stop>
            <stop stop-color="#277FFF" stop-opacity="0.2" offset="100%"></stop>
        </linearGradient>
        <radialGradient cx="23.6333333%" cy="36.1904762%" fx="23.6333333%" fy="36.1904762%" r="94%" gradientTransform="translate(0.236333,0.361905),scale(0.995814,1.000000),rotate(90.000000),translate(-0.236333,-0.361905)" id="radialGradient-6">
            <stop stop-color="#FFFFFF" offset="0%"></stop>
            <stop stop-color="#C2C2C2" offset="100%"></stop>
        </radialGradient>
        <radialGradient cx="76.771875%" cy="35.8125%" fx="76.771875%" fy="35.8125%" r="94%" gradientTransform="translate(0.767719,0.358125),scale(0.995814,1.000000),rotate(90.000000),translate(-0.767719,-0.358125)" id="radialGradient-7">
            <stop stop-color="#FFFFFF" offset="0%"></stop>
            <stop stop-color="#D8D8D8" offset="100%"></stop>
        </radialGradient>
        <radialGradient cx="50%" cy="68.8745261%" fx="50%" fy="68.8745261%" r="229.708683%" gradientTransform="translate(0.500000,0.688745),scale(0.212883,1.000000),scale(1.000000,0.150319),translate(-0.500000,-0.688745)" id="radialGradient-8">
            <stop stop-color="#808184" offset="0%"></stop>
            <stop stop-color="#FFFFFF" stop-opacity="0" offset="100%"></stop>
        </radialGradient>
        <linearGradient x1="0%" y1="50.0050166%" x2="100%" y2="50.0050166%" id="linearGradient-9">
            <stop stop-color="#F5F5F5" offset="0%"></stop>
            <stop stop-color="#DEDEDE" offset="100%"></stop>
        </linearGradient>
        <linearGradient x1="50%" y1="100%" x2="50%" y2="0%" id="linearGradient-10">
            <stop stop-color="#DEDEDE" offset="0%"></stop>
            <stop stop-color="#FDFDFD" offset="100%"></stop>
        </linearGradient>
        <linearGradient x1="24.9965569%" y1="46.3993645%" x2="75.0034431%" y2="53.2596072%" id="linearGradient-11">
            <stop stop-color="#EEEEEE" offset="0%"></stop>
            <stop stop-color="#D8D8D8" offset="100%"></stop>
        </linearGradient>
        <linearGradient x1="0%" y1="50%" x2="100%" y2="50%" id="linearGradient-12">
            <stop stop-color="#DEDEDE" offset="0%"></stop>
            <stop stop-color="#FDFDFD" offset="100%"></stop>
        </linearGradient>
        <linearGradient x1="0%" y1="50%" x2="100%" y2="50%" id="linearGradient-13">
            <stop stop-color="#DEDEDE" offset="0%"></stop>
            <stop stop-color="#FDFDFD" offset="100%"></stop>
        </linearGradient>
        <linearGradient x1="100%" y1="50.0099384%" x2="0%" y2="50.0099384%" id="linearGradient-14">
            <stop stop-color="#3D4757" offset="0%"></stop>
            <stop stop-color="#3D4757" offset="100%"></stop>
        </linearGradient>
        <linearGradient x1="99.9178482%" y1="49.9731038%" x2="-0.0608606473%" y2="49.9731038%" id="linearGradient-15">
            <stop stop-color="#FFF7ED" offset="0%"></stop>
            <stop stop-color="#FFEBD6" offset="100%"></stop>
        </linearGradient>
        <linearGradient x1="99.9091916%" y1="50.0478109%" x2="0.277654744%" y2="50.0478109%" id="linearGradient-16">
            <stop stop-color="#1F1E4A" offset="0%"></stop>
            <stop stop-color="#424677" offset="100%"></stop>
        </linearGradient>
        <linearGradient x1="41141.4773%" y1="50.0130897%" x2="41241.1097%" y2="50.0130897%" id="linearGradient-17">
            <stop stop-color="#1F1E4A" offset="0%"></stop>
            <stop stop-color="#424677" offset="100%"></stop>
        </linearGradient>
        <linearGradient x1="-0.0328407225%" y1="49.9537932%" x2="100.131363%" y2="49.9537932%" id="linearGradient-18">
            <stop stop-color="#ADB5C0" offset="0%"></stop>
            <stop stop-color="#ADB5C0" offset="100%"></stop>
        </linearGradient>
    </defs>
    <g id="页面-1" stroke="none" stroke-width="1" fill="none" fill-rule="evenodd">
        <g id="缺省图" transform="translate(-421.000000, -123.000000)">
            <g id="编组" transform="translate(394.000000, 123.000000)">
                <ellipse id="背景" fill="url(#linearGradient-1)" fill-rule="nonzero" cx="130" cy="122.115963" rx="103" ry="51.5474006"></ellipse>
                <line x1="113.123846" y1="39.3653823" x2="113.90559" y2="39.2338838" id="路径" stroke="#E8E8E8" stroke-linecap="round" stroke-linejoin="round"></line>
                <path d="M115.484923,38.9235474 C121.517026,37.666422 137.062103,33.4847706 137.310359,23.8170031 C137.421282,19.3828746 131.225436,22.2811009 130.522923,23.8170031 C128.885487,27.3937615 131.88041,33.284893 144.435846,31.2545566 C160.218615,28.7034862 167.750821,21.0081957 169.964,17.9416514" id="路径" stroke="#E8E8E8" stroke-linecap="round" stroke-linejoin="round" stroke-dasharray="3.05"></path>
                <path d="M170.407692,17.2736391 C170.708769,16.7476453 170.751026,16.5530275 170.571436,16.7213456" id="路径" stroke="#E8E8E8" stroke-linecap="round" stroke-linejoin="round"></path>
                <polygon id="路径" fill="url(#linearGradient-2)" fill-rule="nonzero" points="171.147179 15.2117431 177.490923 19.3776147 187.104256 0.262996942"></polygon>
                <polygon id="路径" fill="url(#linearGradient-3)" fill-rule="nonzero" points="171.163026 15.2327829 172.087385 15.8481957 169.161128 18.9410398"></polygon>
                <polygon id="路径" fill="url(#linearGradient-4)" fill-rule="nonzero" points="187.104256 0.262996942 168.854769 14.5595107 169.361846 18.6254434 171.416564 15.0118654"></polygon>
                <polygon id="路径" fill="url(#linearGradient-5)" fill-rule="nonzero" points="168.854769 14.5595107 162.917744 11.2141896 187.104256 0.262996942"></polygon>
                <ellipse id="椭圆形" fill="url(#radialGradient-6)" fill-rule="nonzero" opacity="0.84" cx="55.7871795" cy="74.6174924" rx="5.54615385" ry="5.52293578"></ellipse>
                <ellipse id="椭圆形" fill="url(#radialGradient-7)" fill-rule="nonzero" opacity="0.66" cx="198.666667" cy="48.5807951" rx="4.22564103" ry="4.20795107"></ellipse>
                <ellipse id="椭圆形" fill="url(#radialGradient-8)" fill-rule="nonzero" opacity="0.26" style="mix-blend-mode: multiply;" cx="127.623077" cy="88.9192661" rx="59.4230769" ry="12.6501529"></ellipse>
                <polygon id="路径" fill="url(#linearGradient-9)" fill-rule="nonzero" points="90.7015385 40.9907034 90.7015385 75.6063609 130.116205 93.4165138 130.116205 47.2237309"></polygon>
                <polygon id="路径" fill="url(#linearGradient-10)" fill-rule="nonzero" points="167.407487 40.9907034 130.116205 47.2237309 130.116205 93.4165138 167.407487 76.8108869"></polygon>
                <polygon id="路径" fill="url(#linearGradient-11)" fill-rule="nonzero" points="130.116205 36.6565138 90.7015385 40.9907034 130.116205 47.2237309 167.407487 40.9907034"></polygon>
                <polygon id="路径" fill="url(#linearGradient-12)" fill-rule="nonzero" points="90.7015385 40.9907034 86.534 54.3299083 122.948462 65.6387768 130.116205 47.2237309"></polygon>
                <polygon id="路径" fill="url(#linearGradient-13)" fill-rule="nonzero" points="130.116205 47.2237309 136.813846 67.2062385 172.520513 53.3147401 167.407487 40.9907034"></polygon>
                <polygon id="路径" fill="#EAF4FF" fill-rule="nonzero" points="95.6561026 22.5966972 97.758359 26.0892966 95.8937949 26.7836086 93.5538462 23.5277064"></polygon>
                <path d="M113.176667,43.0683792 C113.176667,43.0683792 109.442256,47.4867278 109.209846,49.3487462 C109.157026,49.7590214 110.488103,52.2101529 111.322667,55.1662385 C112.024048,57.8467288 112.569011,60.5654053 112.954821,63.3086239 L111.084974,64.0081957 C111.084974,64.0081957 108.148154,57.880367 107.112872,55.8658104 C106.199077,54.0774312 104.080974,50.048318 104.080974,48.417737 C104.080974,47.0238532 105.713128,43.2998165 105.713128,43.2998165 C105.713128,43.2998165 102.211128,45.403792 101.973436,46.7924159 C101.704051,48.4124771 105.010615,57.4911315 105.010615,57.4911315 L103.378462,58.653578 C103.378462,58.653578 96.3322051,49.8274006 96.6015897,46.3242813 C96.834,43.2998165 103.378462,38.181896 103.378462,38.181896 L108.982718,39.3496024 L113.176667,43.0683792 Z" id="路径" fill="url(#linearGradient-14)" fill-rule="nonzero"></path>
                <path d="M110.377179,24.4587156 C110.377179,24.4587156 109.452821,22.6019572 109.442256,21.9023853 C109.442256,21.3763914 110.033846,20.3559633 110.139487,19.3407951 C110.204106,18.5582093 110.125356,17.7704441 109.907077,17.0159021 L105.934974,14.6857492 L105.000051,15.8534557 C105.000051,15.8534557 104.382051,16.0428135 104.07041,17.2473394 C103.906602,18.0916428 103.906602,18.9593664 104.07041,19.8036697 C104.218308,20.3875229 104.709538,21.6130887 105.237744,21.9076453 C105.765949,22.2022018 107.086462,21.5762691 107.350564,21.9076453 C107.498462,22.0970031 107.350564,24.4639755 107.350564,24.4639755 L110.377179,24.4587156 Z" id="路径" fill="url(#linearGradient-15)" fill-rule="nonzero"></path>
                <path d="M110.419436,20.2034251 C109.944051,21.1133945 109.363026,21.50263 108.660513,21.3816514 C109.066664,20.9084321 109.429075,20.3996589 109.743333,19.8615291 C109.793396,19.6686688 109.748286,19.463595 109.621846,19.3092355 C109.471468,19.1870624 109.287147,19.1136424 109.093641,19.0988379 C109.009128,17.9363914 108.75559,17.3893578 108.359436,16.9948624 C107.86254,16.4738066 107.210812,16.1253379 106.500154,16.0007339 C105.673334,16.0144872 104.859815,16.2102794 104.117949,16.5740673 C103.993611,16.0674663 104.075243,15.5324645 104.345077,15.0855046 C104.663855,14.4636986 105.267086,14.0357449 105.961385,13.9388379 C106.907115,13.7833293 107.876908,13.8665198 108.782,14.1807951 C109.811883,14.4465196 110.639169,15.2090981 110.984615,16.2111315 C111.234117,17.5677559 111.035836,18.9683601 110.419436,20.2034251 Z" id="头发" fill="#3D4757"></path>
                <path d="M113.176667,62.8404893 C113.467179,62.8773089 113.805231,63.4927217 113.879179,63.7714985 C114.058769,64.4552905 113.588667,65.9228135 113.414359,66.564526 C113.240051,67.2062385 113.071026,68.3003058 112.479436,68.889419 C112.009333,69.3575535 110.366615,70.1412844 110.366615,69.5889908 C110.341537,67.7258931 110.419124,65.8628284 110.599026,64.0081957 C110.657128,63.6452599 111.655436,63.6925994 111.998769,63.5400612 C112.342103,63.3875229 112.838615,62.8036697 113.176667,62.8404893 Z" id="路径" fill="url(#linearGradient-16)" fill-rule="nonzero"></path>
                <path d="M105.237744,57.0282569 C105.528256,57.0598165 105.861026,57.6752294 105.934974,57.9592661 C106.114564,58.6430581 105.644462,60.110581 105.470154,60.7470336 C105.295846,61.3834862 105.132103,62.4828135 104.535231,63.0771865 C104.07041,63.5400612 102.42241,64.323792 102.42241,63.7714985 C102.397427,61.9084021 102.475014,60.0453426 102.654821,58.1907034 C102.718205,57.8277676 103.711231,57.880367 104.059846,57.7225688 C104.408462,57.5647706 104.899692,56.9861774 105.237744,57.0282569 Z" id="路径" fill="url(#linearGradient-17)" fill-rule="nonzero"></path>
                <path d="M117.851282,44.462263 C117.851282,44.462263 120.006359,45.1039755 119.663026,45.4511315 C119.483436,45.6299694 117.946359,45.2565138 117.381179,45.146055 C116.921641,45.061896 115.749026,45.3932722 115.516615,45.146055 C115.284205,44.8988379 116.683949,44.2150459 116.683949,44.2150459 L116.092359,37.1351682 C115.944462,35.4151682 115.278923,30.2604281 115.278923,30.2604281 L117.391744,30.0237309 C117.778571,32.3326247 118.013244,34.6642536 118.094256,37.0036697" id="路径" fill="#FDDCBD" fill-rule="nonzero"></path>
                <path d="M102.665385,29.3451988 C102.665385,29.3451988 102.200564,31.9015291 101.730462,31.9015291 C101.260359,31.9015291 98.3341026,28.5193884 97.9960513,27.2517431 C97.8428718,26.6784098 98.8306154,25.9893578 98.4608718,25.6211621 C98.2284615,25.3897248 97.2724103,26.3207339 96.8234359,26.3207339 C96.3744615,26.3207339 94.9588718,25.3897248 94.7106154,25.6211621 C94.462359,25.8525994 95.5610256,26.8204281 95.8832308,27.2517431 C97.2724103,29.1190214 100.108872,34.6945566 101.693487,34.6945566 C102.860821,34.6945566 104.730667,30.7390826 104.730667,30.7390826 L102.665385,29.3451988 Z" id="路径" fill="#FDDCBD" fill-rule="nonzero"></path>
                <path d="M110.842,23.0648318 C112.529811,23.5670476 114.060741,24.4904508 115.289487,25.7474006 C116.638672,27.1614721 117.624495,28.8794408 118.162923,30.7548624 L117.507949,30.8863609 L114.571128,31.4702141 C114.571128,31.4702141 115.289487,37.1930275 114.571128,40.0544343 C114.221629,41.2942789 113.739985,42.4933493 113.13441,43.6311927 C111.637626,42.2068165 109.944388,41.0024241 108.105897,40.0544343 C106.550838,39.2271831 104.836594,38.7394493 103.077385,38.6237309 C103.077385,38.6237309 105.021179,33.8161468 104.302821,31.6700917 C103.939916,30.4529906 102.91737,29.5446982 101.661795,29.324159 C102.156107,28.0182813 102.816462,26.7808806 103.626718,25.6422018 C104.561641,24.248318 106.663897,23.3173089 106.663897,23.3173089 C107.202814,23.9660992 108.00515,24.340499 108.850667,24.337737 C109.699329,24.3114288 110.464612,23.8222427 110.842,23.0648318 Z" id="路径" fill="url(#linearGradient-18)" fill-rule="nonzero"></path>
            </g>
        </g>
    </g>
</svg>