<?xml version="1.0" encoding="UTF-8"?>
<svg width="206px" height="145px" viewBox="0 0 206 145" version="1.1" xmlns="http://www.w3.org/2000/svg" xmlns:xlink="http://www.w3.org/1999/xlink">
    <title>系统繁忙</title>
    <defs>
        <linearGradient x1="49.974359%" y1="0.142857143%" x2="49.974359%" y2="50.1428571%" id="linearGradient-1">
            <stop stop-color="#A9A9A9" stop-opacity="0.15" offset="0%"></stop>
            <stop stop-color="#A9A9A9" stop-opacity="0" offset="100%"></stop>
        </linearGradient>
        <linearGradient x1="50%" y1="25.792545%" x2="50%" y2="85.1969545%" id="linearGradient-2">
            <stop stop-color="#E5E5E5" offset="0%"></stop>
            <stop stop-color="#E3E3E3" offset="100%"></stop>
        </linearGradient>
        <linearGradient x1="50%" y1="0%" x2="50%" y2="85.1969545%" id="linearGradient-3">
            <stop stop-color="#C9C9C9" offset="0%"></stop>
            <stop stop-color="#E3E3E3" offset="100%"></stop>
        </linearGradient>
        <linearGradient x1="50%" y1="24.5432862%" x2="50%" y2="85.1969545%" id="linearGradient-4">
            <stop stop-color="#E1E1E1" offset="0%"></stop>
            <stop stop-color="#E3E3E3" offset="100%"></stop>
        </linearGradient>
        <linearGradient x1="43.5228716%" y1="7.68099269%" x2="61.4565896%" y2="89.8259167%" id="linearGradient-5">
            <stop stop-color="#EBEBEB" offset="0%"></stop>
            <stop stop-color="#FDFDFD" offset="100%"></stop>
        </linearGradient>
        <linearGradient x1="63.526971%" y1="49.6732026%" x2="-2.88381743%" y2="49.6732026%" id="linearGradient-6">
            <stop stop-color="#DEDEDE" offset="0%"></stop>
            <stop stop-color="#E7E7E7" offset="100%"></stop>
        </linearGradient>
        <linearGradient x1="100%" y1="50.0099384%" x2="0%" y2="50.0099384%" id="linearGradient-7">
            <stop stop-color="#3D4757" offset="0%"></stop>
            <stop stop-color="#3D4757" offset="100%"></stop>
        </linearGradient>
        <linearGradient x1="100%" y1="50.0099384%" x2="0%" y2="50.0099384%" id="linearGradient-8">
            <stop stop-color="#3D4757" offset="0%"></stop>
            <stop stop-color="#3D4757" offset="100%"></stop>
        </linearGradient>
        <linearGradient x1="-0.0328407225%" y1="49.9537932%" x2="100.131363%" y2="49.9537932%" id="linearGradient-9">
            <stop stop-color="#ADB5C0" offset="0%"></stop>
            <stop stop-color="#ADB5C0" offset="100%"></stop>
        </linearGradient>
        <linearGradient x1="0%" y1="49.9474837%" x2="99.9840301%" y2="49.9474837%" id="linearGradient-10">
            <stop stop-color="#1F1E4A" offset="0%"></stop>
            <stop stop-color="#424677" offset="100%"></stop>
        </linearGradient>
        <linearGradient x1="0%" y1="49.7943459%" x2="100.017917%" y2="49.7943459%" id="linearGradient-11">
            <stop stop-color="#1F1E4A" offset="0%"></stop>
            <stop stop-color="#424677" offset="100%"></stop>
        </linearGradient>
        <linearGradient x1="0.0055396099%" y1="50.1511316%" x2="99.6360421%" y2="50.1511316%" id="linearGradient-12">
            <stop stop-color="#FFF7ED" offset="0%"></stop>
            <stop stop-color="#FFEBD6" offset="100%"></stop>
        </linearGradient>
        <linearGradient x1="44.5%" y1="33.5%" x2="52.5%" y2="56.5%" id="linearGradient-13">
            <stop stop-color="#FD7271" offset="0%"></stop>
            <stop stop-color="#ED5D58" offset="100%"></stop>
        </linearGradient>
        <radialGradient cx="55.2174608%" cy="50%" fx="55.2174608%" fy="50%" r="486.133818%" gradientTransform="translate(0.552175,0.500000),scale(0.100592,1.000000),scale(1.000000,0.075785),translate(-0.552175,-0.500000)" id="radialGradient-14">
            <stop stop-color="#808184" stop-opacity="0.495164991" offset="0%"></stop>
            <stop stop-color="#FFFFFF" stop-opacity="0" offset="100%"></stop>
        </radialGradient>
        <linearGradient x1="-0.248772243%" y1="49.3277733%" x2="100%" y2="49.3277733%" id="linearGradient-15">
            <stop stop-color="#8CAEFB" offset="0%"></stop>
            <stop stop-color="#78BAFF" offset="100%"></stop>
        </linearGradient>
    </defs>
    <g id="页面-1" stroke="none" stroke-width="1" fill="none" fill-rule="evenodd">
        <g id="缺省图" transform="translate(-1400.000000, -388.000000)">
            <g id="编组" transform="translate(1378.000000, 388.000000)">
                <g id="网络断开" transform="translate(22.000000, 71.000000)" fill="url(#linearGradient-1)" fill-rule="nonzero">
                    <ellipse id="背景" cx="102.883436" cy="51.7055215" rx="102.883436" ry="51.7055215"></ellipse>
                </g>
                <g transform="translate(78.000000, 0.000000)">
                    <g id="编组-2" transform="translate(0.000000, 26.000000)">
                        <path d="M2,0 L102.0625,0 C103.167069,-6.46995335e-16 104.0625,0.8954305 104.0625,2 L104.0625,75.234375 L104.0625,75.234375 L0,75.234375 L0,2 C-1.3527075e-16,0.8954305 0.8954305,2.02906125e-16 2,0 Z" id="矩形" fill="url(#linearGradient-2)"></path>
                        <polygon id="路径" fill="#D7D7D7" fill-rule="nonzero" points="68.9674219 87.8266406 32.8879688 87.8266406 39.1851563 75.3546094 64.1953125 75.3546094"></polygon>
                        <polygon id="路径" fill="url(#linearGradient-3)" fill-rule="nonzero" points="68.2417969 86.0104687 33.7359375 86.0104687 39.1851563 75.3546094 64.1953125 75.3546094"></polygon>
                        <polygon id="形状" fill="url(#linearGradient-4)" fill-rule="nonzero" points="29.9397656 86.9245313 72.3030469 86.9245313 72.3030469 89.9451562 29.9397656 89.9451562"></polygon>
                        <polygon id="路径" fill="#FFFFFF" fill-rule="nonzero" points="3.79195313 4.12523437 100.809844 4.12523437 100.809844 60.3035156 3.79195313 60.3035156"></polygon>
                        <circle id="椭圆形" fill="url(#linearGradient-5)" fill-rule="nonzero" cx="51.2922656" cy="70.2703125" r="2.29921875"></circle>
                        <path d="M19.8091406,9.17507812 L41.1869531,9.17507812 L41.1869531,10.74375 L19.8091406,10.74375 L19.8091406,9.17507812 Z M19.8091406,12.2111719 L32.8584375,12.2111719 L32.8584375,13.685625 L19.8091406,13.685625 L19.8091406,12.2111719 Z M38.1213281,12.2111719 L79.1810156,12.2111719 L79.1810156,13.6926562 L38.1213281,13.6926562 L38.1213281,12.2111719 Z M26.5935938,15.2514844 L44.5338281,15.2514844 L44.5338281,16.8025781 L26.5935938,16.8025781 L26.5935938,15.2514844 Z M32.3521875,18.2840625 L53.73,18.2840625 L53.73,19.8527344 L32.3521875,19.8527344 L32.3521875,18.2840625 Z M55.125,18.2840625 L73.0434375,18.2840625 L73.0434375,20.0264063 L55.125,20.0264063 L55.125,18.2840625 Z M32.3226563,21.3201562 L48.830625,21.3201562 L48.830625,22.7946094 L32.3226563,22.7946094 L32.3226563,21.3201562 Z M50.4140625,21.3201562 L84.47625,21.3201562 L84.47625,22.9507031 L50.4140625,22.9507031 L50.4140625,21.3201562 Z M19.8091406,25.4235937 L41.1869531,25.4235937 L41.1869531,26.9922656 L19.8091406,26.9922656 L19.8091406,25.4235937 Z M19.8091406,28.4561719 L32.8584375,28.4561719 L32.8584375,29.930625 L19.8091406,29.930625 L19.8091406,28.4561719 Z M38.1213281,28.4561719 L79.1810156,28.4561719 L79.1810156,29.9376562 L38.1213281,29.9376562 L38.1213281,28.4561719 Z M26.5935938,31.4922656 L44.5338281,31.4922656 L44.5338281,33.0433594 L26.5935938,33.0433594 L26.5935938,31.4922656 Z M32.3521875,34.5325781 L53.73,34.5325781 L53.73,36.10125 L32.3521875,36.10125 L32.3521875,34.5325781 Z M55.125,34.5325781 L73.0434375,34.5325781 L73.0434375,36.2749219 L55.125,36.2749219 L55.125,34.5325781 Z M32.3226563,37.5651562 L48.830625,37.5651562 L48.830625,39.0396094 L32.3226563,39.0396094 L32.3226563,37.5651562 Z M50.4140625,37.5651562 L84.47625,37.5651562 L84.47625,39.1957031 L50.4140625,39.1957031 L50.4140625,37.5651562 Z M19.8091406,41.6714063 L41.1869531,41.6714063 L41.1869531,43.2400781 L19.8091406,43.2400781 L19.8091406,41.6714063 Z M19.8091406,44.7046875 L32.8584375,44.7046875 L32.8584375,46.1791406 L19.8091406,46.1791406 L19.8091406,44.7046875 Z M38.1213281,44.7046875 L79.1810156,44.7046875 L79.1810156,46.1861719 L38.1213281,46.1861719 L38.1213281,44.7046875 Z M26.5935938,47.7372656 L44.5338281,47.7372656 L44.5338281,49.2883594 L26.5935938,49.2883594 L26.5935938,47.7372656 Z M32.3521875,50.7733594 L53.73,50.7733594 L53.73,52.3420312 L32.3521875,52.3420312 L32.3521875,50.7733594 Z M55.125,50.7733594 L73.0434375,50.7733594 L73.0434375,52.5157031 L55.125,52.5157031 L55.125,50.7733594 Z M32.3226563,53.8136719 L48.830625,53.8136719 L48.830625,55.288125 L32.3226563,55.288125 L32.3226563,53.8136719 Z M50.4140625,53.8136719 L84.47625,53.8136719 L84.47625,55.4442187 L50.4140625,55.4442187 L50.4140625,53.8136719 Z" id="形状" fill="url(#linearGradient-6)" fill-rule="nonzero"></path>
                    </g>
                    <g id="编组-16" transform="translate(76.000000, 0.000000)">
                        <g id="编组-15">
                            <path d="M15.6578001,19.2080576 C15.1589582,20.2546381 14.5582131,21.2495229 13.8642703,22.1782949 C13.3375988,22.9374609 12.9153127,23.5353042 12.9153127,23.5353042 C12.9153127,23.5353042 10.4527678,23.8579498 10.4812365,23.696627 C10.5097052,23.5353042 13.7266715,17.9079857 13.7266715,17.9079857 L13.7266715,17.9079857 C14.1047424,18.1069481 14.4721724,18.3255055 14.8274623,18.5627665 C15.1205409,18.7560275 15.3981561,18.9717742 15.6578001,19.2080576 Z" id="路径" fill="#FDDCBD" fill-rule="nonzero"></path>
                            <path d="M12.5025162,32.7069793 L12.0280374,33.5800203 C11.7053918,34.1968427 11.2356578,35.0983524 10.6852624,36.1422057 C9.26182602,38.8941827 7.2690151,42.6615443 6.06858375,44.929553 C5.62257369,45.7646356 5.28569375,46.3956924 5.11962617,46.6993589 C5.08664095,46.7660494 5.05021521,46.8309822 5.01049605,46.8938952 C4.93184566,46.9981445 4.80895055,47.059592 4.67836089,47.0599627 C4.33114112,47.073653 4.02895118,46.8245504 3.97613228,46.4810986 C3.94291876,46.1252395 6.12552121,37.143356 7.48727534,31.5824645 L8.20373832,28.66442 C8.42199856,27.7818894 8.55485262,27.2409836 8.55485262,27.2409836 C8.68770669,27.4497543 8.8774982,27.7154624 9.10050324,28.0428527 C9.67936736,28.8684458 10.4812365,29.9692366 11.1597412,30.8897255 L12.5025162,32.7069793 Z" id="路径" fill="url(#linearGradient-7)" fill-rule="nonzero"></path>
                            <path d="M12.8488857,40.8822489 C12.8299236,40.8741272 12.8135238,40.8610073 12.8014378,40.8442906 C12.4645579,40.5358793 12.0612509,38.6664329 11.0695902,36.3984243 C10.1148724,34.2364415 9.32189727,32.0065954 8.69719626,29.7272525 C8.2511862,28.0475975 8.36031632,27.0369577 8.69719626,26.4059009 C9.37570093,25.1010842 11.3542775,23.4166845 13.9401869,22.6100706 C14.2723221,22.5056852 15.0552121,22.2257428 15.3636233,22.1355918 C16.3979871,21.8271806 16.9199137,21.661113 17.45133,21.5472381 L17.9732566,21.4238736 L17.9732566,21.4238736 C17.9732566,21.4238736 20.9292595,20.1000778 22.6658519,21.347957 C23.2494608,21.751264 23.7239396,22.51043 23.8567937,23.7440749 C24.3312725,28.5268211 13.5368799,27.7439311 13.4182602,28.4888628 C13.3138749,29.1151748 13.8215672,38.0875688 13.4657081,40.678223" id="路径" fill="url(#linearGradient-8)" fill-rule="nonzero"></path>
                            <path d="M25.9397556,17.1677988 C25.9300187,17.2211152 25.9157321,17.2734994 25.8970525,17.3243768 L25.8970525,17.3243768 L25.8970525,17.3718247 C25.8952662,17.386003 25.8952662,17.4003495 25.8970525,17.4145278 C25.8561373,17.4857476 25.8101523,17.5539321 25.7594536,17.6185537 C25.7495017,17.6363532 25.7366761,17.6523852 25.7214953,17.6660016 C25.6135564,17.7919465 25.4944519,17.9078749 25.3656362,18.0123711 L25.2992092,18.059819 L25.2280374,18.1167564 C25.1426312,18.1831834 25.0524802,18.2401209 24.9623293,18.3018031 L24.8294752,18.3824645 C24.8294752,18.3824645 24.8294752,18.3824645 24.8294752,18.3824645 L24.7772825,18.4109333 L24.7061107,18.4536364 C24.6903612,18.4658769 24.6727363,18.4754906 24.653918,18.4821051 L24.5020848,18.5675113 L24.4783609,18.5675113 L24.3028037,18.662407 L23.9564342,18.8332194 L23.7903666,18.909136 L23.648023,18.975563 L23.5863408,18.975563 L23.4724659,19.0277557 L23.3111431,19.0941827 L23.244716,19.0941827 C23.0169662,19.1890785 22.865133,19.2412712 22.8414091,19.2507607 L22.8414091,19.2507607 C22.8414091,19.2507607 22.9268152,19.469021 23.0359454,19.782177 L23.0691589,19.8580936 C23.1450755,20.0763538 23.2352265,20.3325724 23.3206326,20.5840461 L23.3491014,20.6789419 C23.3491014,20.7406241 23.3918045,20.8023064 23.4107836,20.8639886 C23.4297628,20.9256709 23.4439971,20.9636292 23.4582315,21.0158218 C23.4724659,21.0680145 23.4582315,21.0158218 23.4582315,21.0442906 C23.4582315,21.1296967 23.5056794,21.2056134 23.5246585,21.2767852 C23.5343071,21.3111617 23.542225,21.3460006 23.5483825,21.3811705 C23.5483825,21.4523423 23.581596,21.5187694 23.5958303,21.5804516 C23.7492778,22.5217399 23.8286012,23.4736211 23.8330697,24.4273244 L23.8330697,24.4273244 C23.7666427,24.6645637 20.1463695,21.1534207 17.740762,21.5804516 C17.674631,21.5893198 17.607612,21.5893198 17.5414809,21.5804516 L17.5414809,21.5804516 C17.2567937,21.5804516 17.2994968,21.2672956 17.4133717,20.9066917 C17.551801,20.5491197 17.6612832,20.1810056 17.740762,19.8059009 C17.8119339,19.0752036 16.7918045,16.9590282 16.7918045,16.9590282 C16.7918045,16.9590282 16.4122214,17.8842618 16.0800863,18.5817456 C15.9729645,18.8276337 15.8426864,19.0627698 15.6910137,19.2839742 C15.3698059,18.999344 15.0289164,18.7377311 14.6708843,18.5010842 C14.0350827,18.0787981 13.4657081,17.7846213 13.3138749,17.6992151 L13.3138749,17.6992151 C13.307302,17.3767461 13.3570788,17.0556055 13.4609633,16.7502575 C13.7930985,15.284118 14.5380302,12.5606098 14.7088426,11.6875688 C14.9413372,10.4918822 15.9329978,7.96765505 18.2816679,7.36981177 C19.7905104,6.98073916 21.7121495,7.36981177 23.6195543,10.8145278 L23.6195543,10.8145278 C24.541417,12.5704451 25.271576,14.4204994 25.7974119,16.3327162 C25.7974119,16.6648513 25.8685838,16.9115803 25.9397556,17.1677988 Z" id="路径" fill="url(#linearGradient-9)" fill-rule="nonzero"></path>
                            <path d="M27.3109993,29.2527737 C26.9501741,29.2686806 26.5886768,29.2591675 26.2291876,29.2243049 C25.3134436,29.1483883 24.1557153,28.9585968 23.9991373,28.6027377 C23.7476636,28.0570871 23.7713875,26.5814581 23.7808771,26.0832553 C23.7903666,25.5850526 23.7808771,24.5127305 23.7808771,24.5127305 L23.7808771,24.5127305 C23.7764086,23.5590273 23.6970851,22.6071461 23.5436377,21.6658578 C23.5436377,21.6041755 23.5151689,21.5377485 23.4961898,21.4665767 C23.4900324,21.4314067 23.4821144,21.3965679 23.4724659,21.3621914 C23.4724659,21.2910195 23.4297628,21.2151029 23.4060388,21.1296967 C23.4060388,21.1296967 23.4060388,21.1296967 23.4060388,21.101228 C23.4060388,21.0727593 23.3775701,21.0015875 23.3585909,20.9493948 C23.3396118,20.8972021 23.3206326,20.8260303 23.2969087,20.7643481 L23.26844,20.6694523 C23.1830338,20.4179786 23.0928828,20.16176 23.0169662,19.9434998 L22.9837527,19.8675832 C22.8746226,19.5544272 22.7892164,19.3361669 22.7892164,19.3361669 L22.7892164,19.3361669 C22.8129403,19.3361669 22.9647735,19.2744847 23.1925234,19.1795889 L23.2589504,19.1795889 L23.4202732,19.1131619 L23.5341481,19.0609692 L23.5958303,19.0609692 L23.738174,18.9945422 L23.9042416,18.9186256 L24.2506111,18.7478132 L24.4261682,18.6529174 L24.4498922,18.6529174 C24.5020489,18.6272884 24.5527384,18.5987756 24.6017254,18.5675113 C24.6205436,18.5608967 24.6381686,18.5512831 24.653918,18.5390425 L24.7250899,18.4963394 L24.7772825,18.4678707 C24.7772825,18.4678707 24.7772825,18.4678707 24.7772825,18.4678707 C24.8232124,18.4437918 24.8675845,18.4168516 24.9101366,18.3872093 C25.0002876,18.3255271 25.0904385,18.2685896 25.1758447,18.2021626 L25.2470165,18.1452251 L25.3134436,18.0977773 C25.4422593,17.9932811 25.5613637,17.8773527 25.6693027,17.7514077 C25.6844834,17.7377914 25.6973091,17.7217593 25.707261,17.7039599 C25.7579597,17.6393383 25.8039446,17.5711537 25.8448598,17.499934 C25.8430735,17.4857557 25.8430735,17.4714092 25.8448598,17.4572309 L25.8448598,17.409783 L25.8448598,17.409783 C25.8635394,17.3589056 25.877826,17.3065214 25.8875629,17.253205 C26.9883537,20.6504732 25.2422717,25.3715371 25.4937455,26.4723279 C25.7452193,27.5731187 27.7617541,29.2053258 27.3109993,29.2527737 Z" id="路径" fill="#FDDCBD" fill-rule="nonzero"></path>
                            <path d="M5.62731848,48.9151748 C4.71631919,49.4228671 -1.40754889e-13,51.1025221 -1.40754889e-13,50.2911633 C-1.40754889e-13,49.4798046 4.06153846,46.405182 4.06153846,46.405182 C4.11847592,46.9460878 4.8728972,47.2165407 5.14335011,46.8369577 C5.14335011,46.8369577 5.20028756,46.7468067 5.26196981,46.6329318 C5.41854781,47.5107176 5.99266715,48.7111489 5.62731848,48.9151748 Z" id="路径" fill="url(#linearGradient-10)" fill-rule="nonzero"></path>
                            <path d="M15.0694464,42.7232266 C14.9318476,42.9557212 14.7515457,42.8465911 14.0445723,43.6437154 C13.513156,44.2463035 10.1585909,46.7562963 10.1585909,45.7361669 C10.1585909,44.7160375 12.8109274,40.678223 12.8109274,40.678223 C12.9627606,40.7588844 13.5653487,40.431494 13.5653487,40.431494 C14.1537024,41.0293373 15.3493889,42.2487478 15.0694464,42.7232266 Z" id="路径" fill="url(#linearGradient-11)" fill-rule="nonzero"></path>
                            <path d="M19.0455787,3.94407489 C19.0455787,2.93343506 18.7514019,1.97024311 17.9732566,1.57168093 C16.2793674,0.712874315 14.2011503,1.88483693 13.6460101,2.84328409 C13.3470884,3.35572119 13.3992811,4.49921508 13.8785047,5.60949545 C14.2112947,6.38960867 14.7291833,7.07686964 15.3873472,7.61179595 C16.511862,8.37096202 17.7882099,7.36981177 18.2864127,6.80518201 C18.5724834,6.41132095 18.7684812,5.95939209 18.860532,5.48138618 C19.1572256,5.42636505 19.3914195,5.1977918 19.4536305,4.90252205 C19.5598502,4.52683877 19.3900046,4.12789918 19.0455787,3.94407489 L19.0455787,3.94407489 Z" id="路径" fill="url(#linearGradient-12)" fill-rule="nonzero"></path>
                            <path d="M19.6529116,4.18131429 C19.6529116,5.08282399 19.3207764,5.60475066 18.703954,5.78979739 C18.8399735,5.25915004 18.9304528,4.7178613 18.9744069,4.17182471 C18.9382593,3.9995116 18.8218574,3.85489099 18.6612509,3.7827521 C18.4933505,3.74281398 18.317067,3.75778144 18.1583034,3.82545519 C17.6458663,2.93817985 17.2330697,2.60129991 16.7728253,2.44472191 C16.1845275,2.23577923 15.5453499,2.21751702 14.946082,2.39252924 C14.3000044,2.70964389 13.7327009,3.16672843 13.2854062,3.73055943 C12.9919275,3.37874226 12.8502627,2.9247322 12.8915888,2.46844585 C12.9136125,1.84778015 13.237911,1.27715657 13.759885,0.940624135 C14.4439233,0.452395381 15.240544,0.145500486 16.0753415,0.0486040057 C16.9825894,-0.123216791 17.9159504,0.166569575 18.5663551,0.822004437 C19.2804507,1.79575068 19.6614931,2.97382079 19.6529116,4.18131429 L19.6529116,4.18131429 Z" id="头发" fill="#3D4757"></path>
                        </g>
                        <path d="M16.7680805,8.8122273 C16.6593381,9.15603203 16.7149178,9.53075568 16.9187708,9.8281957 C17.1226238,10.1256357 17.4520526,10.3126746 17.8119339,10.3353042 C19.2353702,10.5250957 19.709849,8.75528984 19.4441409,8.01035814 C19.1784328,7.26542644 18.7846154,7.06140055 18.1203451,7.45521795 C17.4560748,7.84903535 16.7965492,8.40417554 16.7680805,8.8122273 Z" id="路径" fill="#FDDCBD" fill-rule="nonzero"></path>
                        <path d="M17.271028,9.98418992 C16.8297628,9.81337755 17.0527678,9.98418992 16.9294033,9.32940918 C16.8116069,8.91874559 16.6290073,8.52952008 16.3884975,8.17642572 C16.3030913,8.03408208 15.7384615,6.90956734 15.6672897,6.79569243 C16.4644141,6.2974897 17.6790798,6.32121364 17.7122933,5.91316188 C17.7275513,5.59284524 17.775243,5.27490054 17.854637,4.96420429 L17.854637,4.96420429 C17.8472261,5.3209269 17.9101035,5.67561982 18.0396837,6.00805764 C18.2015571,6.3779165 18.417424,6.72170453 18.6802301,7.02818704 C18.949544,7.2901386 19.1247001,7.63377811 19.1784328,8.00561335 C19.1926671,8.8501856 17.7075485,10.1407679 17.271028,9.98418992 Z" id="路径" fill="#FDDCBD" fill-rule="nonzero"></path>
                        <path d="M25.9397556,17.1677988 C25.9300187,17.2211152 25.9157321,17.2734994 25.8970525,17.3243768 L25.9397556,17.1677988 Z" id="路径" fill="url(#linearGradient-13)" fill-rule="nonzero"></path>
                    </g>
                </g>
                <ellipse id="椭圆形" fill="url(#radialGradient-14)" fill-rule="nonzero" opacity="0.36" style="mix-blend-mode: multiply;" cx="126.5" cy="114.5" rx="84.5" ry="8.5"></ellipse>
                <circle id="椭圆形" fill="url(#linearGradient-15)" cx="183" cy="96" r="10"></circle>
                <rect id="矩形" fill="#FFFFFF" x="179" y="95" width="9" height="2"></rect>
            </g>
        </g>
    </g>
</svg>