<?xml version="1.0" encoding="UTF-8"?>
<svg width="235px" height="142px" viewBox="0 0 235 142" version="1.1" xmlns="http://www.w3.org/2000/svg" xmlns:xlink="http://www.w3.org/1999/xlink">
    <title>图片加载失败</title>
    <defs>
        <linearGradient x1="50.1282051%" y1="-0.387755102%" x2="50.1282051%" y2="49.6122449%" id="linearGradient-1">
            <stop stop-color="#A9A9A9" stop-opacity="0.15" offset="0%"></stop>
            <stop stop-color="#A9A9A9" stop-opacity="0" offset="100%"></stop>
        </linearGradient>
        <radialGradient cx="36.1275121%" cy="36.2785863%" fx="36.1275121%" fy="36.2785863%" r="99.5732575%" gradientTransform="translate(0.361275,0.362786),scale(1.000000,0.950000),rotate(90.000000),translate(-0.361275,-0.362786)" id="radialGradient-2">
            <stop stop-color="#FFFFFF" offset="0%"></stop>
            <stop stop-color="#C2C2C2" offset="100%"></stop>
        </radialGradient>
        <radialGradient cx="68.980625%" cy="36.0625%" fx="68.980625%" fy="36.0625%" r="98.9473684%" gradientTransform="translate(0.689806,0.360625),scale(1.000000,0.950000),rotate(90.000000),translate(-0.689806,-0.360625)" id="radialGradient-3">
            <stop stop-color="#FFFFFF" offset="0%"></stop>
            <stop stop-color="#D8D8D8" offset="100%"></stop>
        </radialGradient>
        <radialGradient cx="55.2174608%" cy="50%" fx="55.2174608%" fy="50%" r="440.665945%" gradientTransform="translate(0.552175,0.500000),scale(0.110971,1.000000),scale(1.000000,0.075785),translate(-0.552175,-0.500000)" id="radialGradient-4">
            <stop stop-color="#808184" offset="0%"></stop>
            <stop stop-color="#FFFFFF" stop-opacity="0" offset="100%"></stop>
        </radialGradient>
        <linearGradient x1="50.0062901%" y1="2.64288074%" x2="50.0062901%" y2="94.5820945%" id="linearGradient-5">
            <stop stop-color="#EBEBEB" offset="0%"></stop>
            <stop stop-color="#FDFDFD" offset="100%"></stop>
        </linearGradient>
        <linearGradient x1="-0.248772243%" y1="49.3277733%" x2="100%" y2="49.3277733%" id="linearGradient-6">
            <stop stop-color="#8CAEFB" offset="0%"></stop>
            <stop stop-color="#78BAFF" offset="100%"></stop>
        </linearGradient>
        <linearGradient x1="50%" y1="92.2413793%" x2="49.6258723%" y2="0.702875585%" id="linearGradient-7">
            <stop stop-color="#487FFF" stop-opacity="0" offset="0%"></stop>
            <stop stop-color="#107CEE" stop-opacity="0.55" offset="100%"></stop>
        </linearGradient>
        <linearGradient x1="46.6822713%" y1="7.68099269%" x2="55.8683191%" y2="89.8259167%" id="linearGradient-8">
            <stop stop-color="#EBEBEB" offset="0%"></stop>
            <stop stop-color="#FDFDFD" offset="100%"></stop>
        </linearGradient>
        <linearGradient x1="50%" y1="92.2413793%" x2="49.6431147%" y2="0.293470286%" id="linearGradient-9">
            <stop stop-color="#487FFF" stop-opacity="0" offset="0%"></stop>
            <stop stop-color="#107CEE" stop-opacity="0.55" offset="99.5547421%"></stop>
        </linearGradient>
        <linearGradient x1="100%" y1="50.0099384%" x2="0%" y2="50.0099384%" id="linearGradient-10">
            <stop stop-color="#3D4757" offset="0%"></stop>
            <stop stop-color="#3D4757" offset="100%"></stop>
        </linearGradient>
        <linearGradient x1="100%" y1="50.0099384%" x2="0%" y2="50.0099384%" id="linearGradient-11">
            <stop stop-color="#3D4757" offset="0%"></stop>
            <stop stop-color="#3D4757" offset="100%"></stop>
        </linearGradient>
        <linearGradient x1="100%" y1="49.9972866%" x2="0.057939993%" y2="49.9972866%" id="linearGradient-12">
            <stop stop-color="#1F1E4A" offset="0%"></stop>
            <stop stop-color="#424677" offset="100%"></stop>
        </linearGradient>
        <linearGradient x1="-3085.26031%" y1="50.3579952%" x2="-2985.24571%" y2="50.3579952%" id="linearGradient-13">
            <stop stop-color="#1F1E4A" offset="0%"></stop>
            <stop stop-color="#424677" offset="100%"></stop>
        </linearGradient>
        <linearGradient x1="100.018975%" y1="49.9562192%" x2="0.0324847958%" y2="49.9562192%" id="linearGradient-14">
            <stop stop-color="#3D4757" offset="0%"></stop>
            <stop stop-color="#272557" offset="100%"></stop>
        </linearGradient>
        <linearGradient x1="-2868.58945%" y1="50.0133424%" x2="-2768.61715%" y2="50.0133424%" id="linearGradient-15">
            <stop stop-color="#494983" offset="0%"></stop>
            <stop stop-color="#272557" offset="100%"></stop>
        </linearGradient>
        <linearGradient x1="100%" y1="50%" x2="0.0303715511%" y2="50%" id="linearGradient-16">
            <stop stop-color="#FFF7ED" offset="0%"></stop>
            <stop stop-color="#FFEBD6" offset="100%"></stop>
        </linearGradient>
        <linearGradient x1="-0.0328407225%" y1="49.9537932%" x2="100.131363%" y2="49.9537932%" id="linearGradient-17">
            <stop stop-color="#ADB5C0" offset="0%"></stop>
            <stop stop-color="#ADB5C0" offset="100%"></stop>
        </linearGradient>
    </defs>
    <g id="页面-1" stroke="none" stroke-width="1" fill="none" fill-rule="evenodd">
        <g id="缺省图" transform="translate(-1045.000000, -123.000000)">
            <g id="图片加载失败" transform="translate(1039.000000, 123.000000)">
                <g transform="translate(6.650000, 0.000000)">
                    <ellipse id="背景" fill="url(#linearGradient-1)" fill-rule="nonzero" cx="117.143382" cy="109.624706" rx="117.143382" ry="61.9705882"></ellipse>
                    <ellipse id="椭圆形" fill="url(#radialGradient-2)" fill-rule="nonzero" opacity="0.84" cx="49.6027132" cy="82.4777941" rx="8.66861029" ry="9.12485294"></ellipse>
                    <ellipse id="椭圆形" fill="url(#radialGradient-3)" fill-rule="nonzero" opacity="0.66" cx="188.93125" cy="51.1320588" rx="4.80588235" ry="5.05882353"></ellipse>
                    <ellipse id="椭圆形" fill="url(#radialGradient-4)" fill-rule="nonzero" opacity="0.36" style="mix-blend-mode: multiply;" cx="115.040809" cy="84.2736765" rx="67.5827206" ry="7.49970588"></ellipse>
                    <polygon id="路径" fill="url(#linearGradient-5)" fill-rule="nonzero" points="171.209559 11.4898529 156.77389 81.6241176 123.45711 74.6113235 135.117382 58.8277941 127.349875 27.2670588 144.560941 5.05882353"></polygon>
                    <ellipse id="椭圆形" fill="url(#linearGradient-6)" fill-rule="nonzero" opacity="0.76" cx="147.336338" cy="27.2670588" rx="7.22083824" ry="7.60088235"></ellipse>
                    <polygon id="路径" fill="url(#linearGradient-7)" fill-rule="nonzero" opacity="0.76" points="132.341985 47.5402941 138.451463 44.8022059 157.254478 79.2780882 123.45711 74.6113235 135.117382 58.8277941"></polygon>
                    <polygon id="路径" fill="url(#linearGradient-8)" points="75.0198235 84.9376471 118.296794 77.4442647 123.733449 54.5910294 107.717846 27.7476471 115.263081 0.379411765 63.215375 9.39044118"></polygon>
                    <polygon id="路径" fill="url(#linearGradient-9)" opacity="0.81" points="97.120875 31.9527941 123.733449 54.5910294 118.296794 77.4442647 75.0198235 84.9376471 73.1154926 72.7648529"></polygon>
                    <path d="M183.092103,68.1992647 C183.633391,70.9331374 183.879252,73.7226735 183.825,76.5147059 C183.692838,80.3088235 184.11936,105.033824 184.11936,105.033824 L181.247846,105.033824 C181.247846,105.033824 177.156838,85.6458824 177.000647,84.1155882 C176.844456,82.5852941 174.813971,67.2823529 174.813971,67.2823529 L183.092103,68.1992647 Z" id="路径" fill="url(#linearGradient-10)" fill-rule="nonzero"></path>
                    <path d="M181.187772,67.0736765 C180.790281,70.1288409 180.188044,73.1505931 179.385566,76.1163235 C178.262191,79.8788235 172.741434,105.040147 172.741434,105.040147 L169.869919,105.040147 C169.869919,105.040147 170.398566,85.6522059 170.596809,84.1219118 C170.795051,82.5916176 172.248831,67.2823529 172.248831,67.2823529 L181.187772,67.0736765 Z" id="路径" fill="url(#linearGradient-11)" fill-rule="nonzero"></path>
                    <path d="M173.119897,104.338235 L173.119897,106.943529 L166.367632,106.943529 C166.194822,106.948317 166.040225,106.831108 165.98978,106.657059 C165.939336,106.483011 166.005449,106.294923 166.151368,106.197353 C167.360328,105.290321 168.734961,104.657267 170.188309,104.338235 L173.119897,104.338235 Z" id="路径" fill="url(#linearGradient-12)" fill-rule="nonzero"></path>
                    <path d="M183.975184,104.376176 L183.975184,107.000441 L177.17486,107.000441 C177.003156,106.999941 176.851909,106.881431 176.80219,106.708431 C176.752471,106.535432 176.815947,106.348544 176.958596,106.247941 C178.175138,105.326526 179.559934,104.680583 181.025574,104.350882 L183.975184,104.376176 Z" id="路径" fill="url(#linearGradient-13)" fill-rule="nonzero"></path>
                    <path d="M174.11111,42.4688235 C174.11111,42.4688235 172.230809,39.4588235 174.387449,39.1679412 C176.045478,38.9402941 176.730316,39.4651471 176.730316,39.4651471 C176.730316,39.4651471 178.640654,39.2438235 179.685934,40.1923529 C180.400809,40.8247059 183.026022,45.9151471 178.778824,47.7489706 C174.531625,49.5827941 175.414706,44.8970588 175.414706,44.8970588 L174.11111,42.4688235 Z" id="路径" fill="url(#linearGradient-14)" fill-rule="nonzero"></path>
                    <path d="M174.387449,39.1679412 C176.189654,39.2058824 176.79039,39.2058824 176.79039,39.2058824 C176.79039,39.2058824 178.646662,39.2438235 179.691941,40.1923529 C180.406816,40.8247059 182.797743,45.5294118 178.784831,47.7489706 C176.874493,48.805 175.931338,48.0272059 175.582912,47.1735294 C179.613846,48.3623529 180.046375,43.2529412 179.385566,41.7922059 C178.724757,40.3314706 177.08475,41.0017647 177.08475,41.0017647 C176.484015,39.3197059 174.387449,39.5030882 173.534404,39.6295588 C173.723595,39.3305367 174.046335,39.1558888 174.387449,39.1679412 Z" id="路径" fill="url(#linearGradient-15)" fill-rule="nonzero"></path>
                    <path d="M176.760353,43.9358824 C176.760353,43.9358824 177.313029,43.3477941 177.733544,43.9358824 C178.154059,44.5239706 177.871713,45.8329412 177.17486,45.9151471 C177.17486,45.9151471 177.385118,47.8122059 178.778824,47.7489706 L178.778824,49.2855882 L175.504816,49.2855882 L175.504816,48.1157353 C175.504816,48.1157353 173.486346,47.2304412 173.552426,45.4725 C173.587682,44.4466079 173.77622,43.4329625 174.11111,42.4688235 C174.812181,43.2577423 175.74559,43.7746324 176.760353,43.9358824 L176.760353,43.9358824 Z" id="路径" fill="url(#linearGradient-16)" fill-rule="nonzero"></path>
                    <polygon id="路径" points="183.849029 64.715 183.272324 66.0366176 183.188221 64.7845588 182.635544 56.9117647 185.681272 60.4972059"></polygon>
                    <path d="M171.377765,48.0588235 L167.773353,49.9558824 L164.168941,47.4264706 C163.568206,46.7941176 163.249816,45.8898529 163.472088,45.5989706 C165.971147,42.3676471 175.582912,41.1029412 175.582912,41.1029412 C175.582912,41.1029412 177.385118,40.4705882 177.385118,41.1029412 C177.385118,41.7352941 175.967382,41.9123529 175.967382,41.9123529 C175.967382,41.9123529 176.838449,42.1336765 176.784382,42.3676471 C176.730316,42.6016176 176.333831,42.3676471 176.183647,42.3676471 C174.123125,42.5067647 166.643971,45.6748529 167.172618,46.1617647 L171.377765,48.0588235 Z" id="路径" fill="#FDDCBD" fill-rule="nonzero"></path>
                    <path d="M187.549559,57.5947059 C187.549559,57.5947059 189.525978,60.2948529 189.399824,61.3382353 C189.111471,63.6716176 183.392471,68.2941176 183.392471,68.2941176 L183.026022,65.5813235 C183.026022,65.5813235 186.396147,61.9705882 186.396147,61.3382353 C186.396147,60.5477941 184.593941,58.8088235 184.593941,58.8088235 L187.549559,57.5947059 Z" id="路径" fill="#FDDCBD" fill-rule="nonzero"></path>
                    <polygon id="路径" points="184.593941 61.3382353 184.593941 63.0013235 183.849029 64.715 183.272324 66.0366176 183.188221 64.7845588 182.635544 56.9117647 185.681272 60.4972059 185.194676 61.6164706 185.194676 61.3382353"></polygon>
                    <path d="M183.554669,70.0457353 L183.554669,70.1216176 L182.953934,70.1785294 C181.05561,70.3682353 174.976169,70.8741176 171.756228,70.1785294 L171.666118,70.1785294 L171.822309,55.1917647 C170.144725,53.8138632 168.581212,52.2886396 167.148588,50.6325 C167.480655,49.7694606 168.130907,49.0849853 168.950794,48.7354412 C169.649074,48.3734867 170.30777,47.9324478 170.915199,47.4201471 C172.158721,48.0525 173.606493,48.7354412 174.31536,49.0769118 C174.602403,49.2119173 174.914135,49.2788402 175.228478,49.2729412 L179.289449,49.2729412 C181.298097,49.1706567 183.23573,50.0675244 184.521853,51.6948529 C185.865298,53.3566636 187.086332,55.1239497 188.174324,56.9813235 L186.972853,58.2460294 C186.294987,58.8881555 185.464647,59.3251763 184.569912,59.5107353 L184.569912,59.5107353 L182.623529,56.9117647 L183.170199,64.7845588" id="路径" fill="url(#linearGradient-17)" fill-rule="nonzero"></path>
                </g>
                <text fill-rule="nonzero" font-family="PingFangSC-Regular, PingFang SC" font-size="14" font-weight="normal" fill="#000000" fill-opacity="0.65">
                    <tspan x="81.7933824" y="140">图片加载失败</tspan>
                </text>
            </g>
        </g>
    </g>
</svg>