<?xml version="1.0" encoding="UTF-8"?>
<svg width="206px" height="142px" viewBox="0 0 206 142" version="1.1" xmlns="http://www.w3.org/2000/svg" xmlns:xlink="http://www.w3.org/1999/xlink">
    <title>无权限访问</title>
    <defs>
        <linearGradient x1="50.4102564%" y1="0.173469388%" x2="50.4102564%" y2="50.1734694%" id="linearGradient-1">
            <stop stop-color="#A9A9A9" stop-opacity="0.15" offset="0%"></stop>
            <stop stop-color="#A9A9A9" stop-opacity="0" offset="100%"></stop>
        </linearGradient>
        <radialGradient cx="55.2174608%" cy="50%" fx="55.2174608%" fy="50%" r="486.133818%" gradientTransform="translate(0.552175,0.500000),scale(0.100592,1.000000),scale(1.000000,0.075785),translate(-0.552175,-0.500000)" id="radialGradient-2">
            <stop stop-color="#808184" stop-opacity="0.495164991" offset="0%"></stop>
            <stop stop-color="#FFFFFF" stop-opacity="0" offset="100%"></stop>
        </radialGradient>
        <radialGradient cx="30.6472626%" cy="35.8974359%" fx="30.6472626%" fy="35.8974359%" r="94.5945946%" id="radialGradient-3">
            <stop stop-color="#FFFFFF" offset="0%"></stop>
            <stop stop-color="#C2C2C2" offset="100%"></stop>
        </radialGradient>
        <radialGradient cx="76.78125%" cy="35.6875%" fx="76.78125%" fy="35.6875%" r="94%" id="radialGradient-4">
            <stop stop-color="#FFFFFF" offset="0%"></stop>
            <stop stop-color="#D8D8D8" offset="100%"></stop>
        </radialGradient>
        <linearGradient x1="0.00617649187%" y1="50.4951698%" x2="99.9938235%" y2="50.4951698%" id="linearGradient-5">
            <stop stop-color="#DEDEDE" offset="0%"></stop>
            <stop stop-color="#FDFDFD" offset="100%"></stop>
        </linearGradient>
        <linearGradient x1="-0.02768548%" y1="50.0132908%" x2="99.9999538%" y2="50.0132908%" id="linearGradient-6">
            <stop stop-color="#DEDEDE" offset="0%"></stop>
            <stop stop-color="#FDFDFD" offset="100%"></stop>
        </linearGradient>
        <linearGradient x1="50%" y1="24.5432862%" x2="50%" y2="85.1969545%" id="linearGradient-7">
            <stop stop-color="#E1E1E1" offset="0%"></stop>
            <stop stop-color="#E3E3E3" offset="100%"></stop>
        </linearGradient>
        <linearGradient x1="-0.248772243%" y1="49.3277733%" x2="100%" y2="49.3277733%" id="linearGradient-8">
            <stop stop-color="#8CAEFB" offset="0%"></stop>
            <stop stop-color="#78BAFF" offset="100%"></stop>
        </linearGradient>
        <linearGradient x1="0%" y1="49.9395514%" x2="99.5407628%" y2="49.9395514%" id="linearGradient-9">
            <stop stop-color="#FFF7ED" offset="0%"></stop>
            <stop stop-color="#FFEBD6" offset="100%"></stop>
        </linearGradient>
        <linearGradient x1="0%" y1="50.2856151%" x2="100%" y2="50.2856151%" id="linearGradient-10">
            <stop stop-color="#FFF7ED" offset="0%"></stop>
            <stop stop-color="#FFEBD6" offset="100%"></stop>
        </linearGradient>
        <linearGradient x1="0.0174355208%" y1="50.2083273%" x2="99.9870047%" y2="50.2083273%" id="linearGradient-11">
            <stop stop-color="#3D4757" offset="0%"></stop>
            <stop stop-color="#272557" offset="100%"></stop>
        </linearGradient>
        <linearGradient x1="0.24781986%" y1="50.1743082%" x2="99.8457041%" y2="50.1743082%" id="linearGradient-12">
            <stop stop-color="#FFF7ED" offset="0%"></stop>
            <stop stop-color="#FFEBD6" offset="100%"></stop>
        </linearGradient>
        <linearGradient x1="0.0576291663%" y1="50.2520661%" x2="100.116089%" y2="50.2520661%" id="linearGradient-13">
            <stop stop-color="#1F1E4A" offset="0%"></stop>
            <stop stop-color="#424677" offset="100%"></stop>
        </linearGradient>
        <linearGradient x1="100%" y1="50.0099384%" x2="0%" y2="50.0099384%" id="linearGradient-14">
            <stop stop-color="#3D4757" offset="0%"></stop>
            <stop stop-color="#3D4757" offset="100%"></stop>
        </linearGradient>
        <linearGradient x1="-0.15662828%" y1="49.9704028%" x2="99.6439754%" y2="49.9704028%" id="linearGradient-15">
            <stop stop-color="#1F1E4A" offset="0%"></stop>
            <stop stop-color="#424677" offset="100%"></stop>
        </linearGradient>
        <linearGradient x1="100%" y1="50.0099384%" x2="0%" y2="50.0099384%" id="linearGradient-16">
            <stop stop-color="#3D4757" offset="0%"></stop>
            <stop stop-color="#3D4757" offset="100%"></stop>
        </linearGradient>
        <linearGradient x1="-0.0328407225%" y1="49.9537932%" x2="100.131363%" y2="49.9537932%" id="linearGradient-17">
            <stop stop-color="#ADB5C0" offset="0%"></stop>
            <stop stop-color="#ADB5C0" offset="100%"></stop>
        </linearGradient>
    </defs>
    <g id="页面-1" stroke="none" stroke-width="1" fill="none" fill-rule="evenodd">
        <g id="缺省图" transform="translate(-441.000000, -386.000000)">
            <g id="编组" transform="translate(414.000000, 386.000000)">
                <g id="编组-5" transform="translate(27.000000, 0.000000)">
                    <g id="编组-3" transform="translate(0.000000, 40.000000)">
                        <ellipse id="背景" fill="url(#linearGradient-1)" fill-rule="nonzero" cx="103" cy="82.1159633" rx="103" ry="51.5474006"></ellipse>
                        <g id="编组" transform="translate(15.000000, 0.000000)">
                            <ellipse id="椭圆形" fill="url(#radialGradient-2)" fill-rule="nonzero" opacity="0.36" style="mix-blend-mode: multiply;" cx="84.5" cy="64.5" rx="84.5" ry="8.5"></ellipse>
                            <circle id="椭圆形" fill="url(#radialGradient-3)" fill-rule="nonzero" opacity="0.400000006" cx="166" cy="39" r="11"></circle>
                            <circle id="椭圆形" fill="url(#radialGradient-4)" fill-rule="nonzero" opacity="0.66" cx="32" cy="6" r="6"></circle>
                            <polygon id="路径" fill="#FFFFFF" points="110.045 23 110.345 23 110.345 23 110.345 23 110.345 23 110.345 23 110.345 23 110.345 23 110.345 23 110.345 23 110.345 23 110.345 23 110.345 23.1721311 110.345 23.2868852 110.345 23.9590164 110.345 24.0081967 110.345 24.2786885 110.345 24.352459 110.345 24.5081967 110.345 24.5081967 110.345 24.5081967 110.345 24.5081967 110.345 24.5081967 110.345 24.5081967 110.955 24.5081967 110.955 24.5081967 110.955 24.5081967 110.955 24.5081967 110.955 24.5081967 110.955 24.5081967 110.955 24.5081967 110.955 24.5081967 110.955 24.5081967 110.955 24.5081967 110.955 25 110.955 25 110.955 25 110.955 25 110.955 25 110.955 25 110.955 25 110.955 25 110.955 25 110.955 25 110.885 25 110.885 25 110.825 25 110.825 25 110.825 25 110.775 25 110.775 25 110.775 25 110.775 25 110.775 25 110.775 25 110.775 25 110.725 25 110.105 25 110.105 25 110.105 25 110.105 25 110.105 25 110.105 25 110.105 25 110.105 25 110.105 25 110.105 25 110.105 24.942623 110.105 24.942623 110.105 24.9016393 110.105 24.852459 110.105 24.8114754 110.105 24.7622951 110.105 24.7131148 110.105 24.6557377 110.105 24.6557377 110.105 24.6557377 110.105 24.6557377 110.105 24.6557377 110.105 24.6557377 110.105 24.6557377 110.105 24.6557377 110.105 24.0409836 110.105 24 110.105 23.9508197 110.105 23.8770492 110.105 23.7131148 110.105 23.7131148 110.105 23.7131148 110.105 23.7131148 110.105 23.5327869 110.105 23.4262295 110.105 23.0737705 110.105 23.0737705 110.105 23.0737705 110.105 23.0737705 110.105 23.0737705 110.105 23.0737705 110.105 23.0737705 110.105 23.0737705 110.105 23.0737705 110.105 23.0737705 110.105 23.0737705 110.405 23.0737705"></polygon>
                        </g>
                    </g>
                    <g id="编组-12" transform="translate(67.000000, 0.000000)">
                        <path d="M63.4678512,42.4196022 L53.4265289,42.4196022 L53.4265289,27.6387758 C53.5491259,21.4367147 50.3105122,15.6525818 44.9588712,12.5156201 C39.6072301,9.37865833 32.9781418,9.37865833 27.6265007,12.5156201 C22.2748597,15.6525818 19.036246,21.4367147 19.158843,27.6387758 L19.158843,42.4196022 L9.05057851,42.4196022 L9.05057851,27.6387758 C8.89650482,17.816351 14.0484806,8.67339951 22.5302003,3.71717122 C31.01192,-1.23905707 41.5065098,-1.23905707 49.9882295,3.71717122 C58.4699491,8.67339951 63.6219249,17.816351 63.4678512,27.6387758 L63.4678512,42.4196022 Z" id="路径" fill="url(#linearGradient-5)"></path>
                        <path d="M40.2924793,59.1015857 L40.2924793,64.2494369 C40.2924793,66.4769474 38.4867253,68.2827014 36.2592149,68.2827014 C34.0317044,68.2827014 32.2259504,66.4769474 32.2259504,64.2494369 L32.2259504,59.1015857 C29.0847422,57.2779118 27.5580767,53.5733111 28.502385,50.0659963 C29.4466933,46.5586814 32.6270013,44.1213848 36.2592149,44.1213848 C39.8914285,44.1213848 43.0717365,46.5586814 44.0160448,50.0659963 C44.9603531,53.5733111 43.4336875,57.2779118 40.2924793,59.1015857 L40.2924793,59.1015857 Z M66.513719,29.9884452 L6.02479339,29.9884452 C2.69739188,29.9884452 4.75652575e-14,32.6858371 4.75652575e-14,36.0132386 L4.75652575e-14,74.3309245 C4.75652575e-14,77.658326 2.69739188,80.3557179 6.02479339,80.3557179 L66.513719,80.3557179 C69.8411205,80.3557179 72.5385459,77.658326 72.5385459,74.3309245 L72.5385459,36.0333212 C72.5438503,34.4319699 71.9114543,32.8943758 70.7810073,31.7601607 C69.6505603,30.6259455 68.1150792,29.9884452 66.513719,29.9884452 Z" id="形状" fill="url(#linearGradient-6)"></path>
                        <path d="M36.6776033,43.7651394 C32.947375,43.7509928 29.675214,46.2502879 28.7074188,49.8528114 C27.7396235,53.4553349 29.3188247,57.2579178 32.5539669,59.1149741 L32.5539669,64.3565444 C32.6431796,66.5711932 34.4645055,68.3206278 36.6809504,68.3206278 C38.8973954,68.3206278 40.7187213,66.5711932 40.8079339,64.3565444 L40.8079339,59.0881973 C44.0441858,57.2305337 45.6232523,53.4261284 44.6536634,49.8227775 C43.6840744,46.2194266 40.4090835,43.72115 36.6776033,43.7382742 L36.6776033,43.7651394 Z" id="路径" fill="url(#linearGradient-7)"></path>
                    </g>
                    <g id="编组-4" transform="translate(27.000000, 41.000000)" fill-rule="nonzero">
                        <g id="编组" transform="translate(39.844752, 11.408537) rotate(-44.000000) translate(-39.844752, -11.408537) translate(30.000000, 6.000000)" fill="url(#linearGradient-8)">
                            <path d="M3.04525266,6.75842395 C3.7033243,6.75842395 4.23213188,6.23549202 4.23213188,5.5998392 C4.23213188,4.97348296 3.7033243,4.44938895 3.04525266,4.44938895 C2.38718101,4.44938895 1.85602318,4.97348296 1.85602318,5.5998392 C1.85602318,6.23549202 2.38130537,6.75842395 3.04525266,6.75842395 L3.04525266,6.75842395 Z M17.3148312,7.46263896 L16.2043353,6.3842371 L15.1349689,7.43591133 L14.0750035,6.40166817 L13.0115127,7.43591133 L11.774103,6.42142338 L10.5754725,7.50679765 L8.81278059,7.50679765 C8.0216683,8.8608617 6.55972326,9.6942555 4.97833812,9.69265544 C2.53289688,9.69265544 0.552806297,8.03786408 0.552806297,5.66956346 C0.552806297,3.30242491 2.53289688,1.0817073 4.97951325,1.0817073 C6.60471519,1.0817073 8.00899308,1.95093638 8.78340239,3.22224201 L17.6920473,3.22224201 L19.1844598,4.68412729 C19.4194854,4.91073112 19.4006833,5.42320442 19.1938608,5.63237719 L17.3430343,7.45334239 L17.3148312,7.46147689 L17.3148312,7.46263896 Z" id="形状" transform="translate(9.953839, 5.387183) rotate(-4.000000) translate(-9.953839, -5.387183) "></path>
                        </g>
                        <g id="编组-14" transform="translate(0.000000, 16.000000)">
                            <path d="M34.8993495,0.328421053 C34.8993495,0.198421053 34.8439976,0.0547368421 34.7263749,0 C33.6352753,0.940418641 32.4793193,1.8046114 31.2668835,2.58631579 C31.7675986,2.15031116 32.1464493,1.59423992 32.3670018,0.971578947 C31.7674433,1.11682846 31.2370474,1.46246844 30.8655825,1.95 C30.4781195,2.42210526 30.1736842,2.95578947 29.841573,3.45526316 C29.0218056,4.51334 28.0944184,5.4854478 27.0739799,6.35631579 L26.7003548,6.68473684 C25.4893789,7.75814091 24.4262872,8.98425033 23.5383797,10.3315789 C23.3695262,10.6162061 23.2237705,10.9136301 23.1024837,11.2210526 L22.8603193,11.3031579 C18.7089296,12.6715789 15.0626257,15.0184211 11.5823773,17.5294737 C11.2158371,17.7701415 10.8851355,18.0603205 10.5998817,18.3915789 C10.2234693,18.7876151 10.108025,19.3610779 10.3023655,19.8694737 C10.6475149,20.3964176 11.1944784,20.761948 11.8176227,20.8821053 C12.7674261,21.0180342 13.7363563,20.8527509 14.5852158,20.41 C15.7333679,19.9340757 16.8536882,19.3949873 17.9409225,18.7952632 C20.3219253,17.4774672 22.5593375,15.920656 24.617741,14.1494737 C24.9421737,13.8928512 25.2245696,13.588206 25.4549379,13.2463158 C26.7903016,12.5621053 28.0564755,10.3384211 28.630751,9.32578947 C29.2050266,8.31315789 29.7931402,7.27315789 30.3604967,6.26052632 C30.6047395,5.84503999 30.897328,5.45925659 31.2322886,5.11105263 C31.7858072,4.38578947 32.8859255,4.13947368 33.6746895,3.66736842 C33.9705581,3.51613323 34.2301121,3.30379714 34.4357776,3.04473684 C34.6073753,2.7911551 34.7294096,2.50802512 34.7955648,2.21 C34.9473116,1.59451898 34.9824997,0.956572275 34.8993495,0.328421053 Z" id="路径" fill="#FDDCBD"></path>
                            <path d="M10.9181549,13.1710526 C10.6967475,13.6568421 10.3577173,14.1768421 9.82495565,14.2794737 C9.44991041,14.300099 9.0737132,14.277135 8.70408043,14.2110526 L8.3512123,14.1563158 C7.97565817,14.1156991 7.60900333,14.0163935 7.26493199,13.8621053 C6.88270796,13.4809884 6.56081272,13.0450303 6.31011236,12.5689474 L6.2547605,12.4526316 C6.20912517,12.3587171 6.15830947,12.2673515 6.10254287,12.1789474 C5.91674984,11.9048579 5.78526748,11.5983787 5.71507983,11.2757895 C5.71507983,9.62684211 6.40697812,9.22315789 7.03660556,8.39526316 C7.67894418,7.60007955 8.54231671,7.0079038 9.5205204,6.69157895 C10.0554434,6.46728527 10.6469023,6.4099902 11.2156712,6.52736842 C11.706919,6.66421053 11.6377292,7.01315789 11.6654051,7.44421053 C11.8847083,9.3847978 11.6284054,11.3490751 10.9181549,13.1710526 L10.9181549,13.1710526 Z" id="路径" fill="url(#linearGradient-9)"></path>
                            <path d="M9.37522176,16.6878947 C8.1472684,17.9590201 6.33594584,18.501571 4.6011236,18.1178947 C4.12791313,17.9649149 3.64156513,17.8549848 3.1481372,17.7894737 C3.81163825,17.2936838 4.24352731,16.5530648 4.34512123,15.7368421 C4.52329244,14.8455035 4.49252253,13.9256412 4.25517445,13.0478947 C4.20674157,12.87 3.80544057,12.1242105 3.9922531,11.9873684 C4.17906564,11.8505263 5.03701952,12.2473684 5.2861029,12.2405263 C5.56673943,12.2292281 5.84213803,12.1617253 6.09562389,12.0421053 L6.22708457,11.9873684 L6.22708457,11.9873684 C6.5129226,11.8463754 6.80625352,11.7207538 7.10579539,11.6110526 C7.16872942,11.5906797 7.23659287,11.5906797 7.29952691,11.6110526 C7.35395146,11.6298443 7.40354848,11.6602061 7.44482555,11.7 L8.61413365,12.7468421 C8.47695137,13.1390699 8.37281159,13.5418465 8.30277942,13.9510526 C8.30609263,13.9806112 8.30609263,14.0104414 8.30277942,14.04 C8.24735511,14.4184074 8.21960717,14.8002756 8.21975163,15.1826316 C8.21975163,15.2921053 8.21975163,15.4015789 8.21975163,15.5042105 C8.23168577,15.6443188 8.26191949,15.7823086 8.3096984,15.9147368 C8.49853595,16.3431044 8.9053403,16.638287 9.37522176,16.6878947 L9.37522176,16.6878947 Z" id="路径" fill="url(#linearGradient-10)"></path>
                            <path d="M7.02968658,13.5405263 C7.35330731,13.2900624 7.64386792,13.0004315 7.89455943,12.6784211 C8.48267297,11.8915789 8.64872856,10.8721053 9.13997635,10.0236842 C9.45414357,9.46940802 9.90072681,8.99959822 10.4407451,8.65526316 C10.9081743,8.40855087 11.3588617,8.13200088 11.7899468,7.82736842 C12.3744562,7.26188227 12.6930823,6.48037034 12.6686576,5.67210526 C12.6701381,5.44258802 12.649285,5.21346227 12.6063868,4.98789474 C12.5552912,4.62311164 12.3576717,4.2940911 12.0581935,4.07519715 C11.7587153,3.85630319 11.3826594,3.76601416 11.0150207,3.82473684 L10.8420461,3.82473684 C9.58971023,3.98894737 8.31661739,3.87947368 7.05736251,3.99578947 C5.77731522,4.03646667 4.56163739,4.56042684 3.66014193,5.46 C2.78835009,6.46578947 2.64305145,7.88894737 2.61537552,9.21631579 C2.58629988,9.88501914 2.63037592,10.5548718 2.74683619,11.2142105 C2.92190469,12.0729291 3.3067106,12.8762708 3.86771141,13.5542105 C4.78793613,14.7310526 6.02643406,14.3752632 7.02968658,13.5405263 Z" id="路径" fill="url(#linearGradient-11)"></path>
                            <path d="M9.42365464,9.64736842 C9.3232639,9.47517475 9.17736057,9.33325785 9.00159669,9.23684211 C8.81849003,9.14263257 8.59559803,9.16984435 8.44115908,9.30526316 C8.33466812,9.41993695 8.28412522,9.57487903 8.30277942,9.72947368 C8.32777814,9.88116488 8.37436694,10.0285925 8.44115908,10.1673684 C8.62474098,10.6745149 8.88357477,11.1518417 9.20916617,11.5836842 C9.27143702,11.6521053 9.35446481,11.7273684 9.44441159,11.7 C9.49771387,11.6792263 9.54184186,11.6404373 9.56895328,11.5905263 C9.56895328,11.4673684 9.74192785,11.2415789 9.77652277,11.1047368 C9.82263736,10.9190799 9.841282,10.7277911 9.83187463,10.5368421 C9.83187463,10.5368421 9.83187463,10.5778947 9.83187463,10.5710526 C9.61738616,10.3521053 9.58971023,9.92105263 9.42365464,9.64736842 Z" id="路径" fill="url(#linearGradient-12)"></path>
                            <path d="M2.11720875,73.8126316 C2.03752438,74.1617492 2.03752438,74.5240403 2.11720875,74.8731579 C2.41614841,75.5469639 3.13035738,75.9433703 3.86771141,75.8447368 C4.58582655,75.7264466 5.2672751,75.4480044 5.86037847,75.0305263 C6.88935613,74.443826 7.85597145,73.756146 8.74559432,72.9778947 C9.08552486,72.6888887 9.36318082,72.3352042 9.5620343,71.9378947 C9.76236783,71.5368134 9.76236783,71.0663445 9.5620343,70.6652632 C9.13775709,70.1016535 8.39469562,69.8723722 7.72158486,70.0973684 C7.06824007,70.3255625 6.43812634,70.6142102 5.83962153,70.9594737 C4.98858664,71.3494737 4.45582496,71.6436842 3.61170905,71.9857895 C2.56694264,72.41 2.25558841,72.7931579 2.11720875,73.8126316 Z" id="路径" fill="url(#linearGradient-13)"></path>
                            <path d="M0.961738616,40.7994737 C0.886149009,43.018042 1.0672175,45.237885 1.50141928,47.4157895 C1.84736842,49.7238596 2.1125961,52.0410526 2.29710231,54.3673684 C2.36280664,55.082035 2.36280664,55.8011229 2.29710231,56.5157895 C2.0900994,57.6573443 1.82452881,58.7877513 1.50141928,59.9026316 C1.20385488,61.8552921 1.20385488,63.8410236 1.50141928,65.7936842 L1.8958013,69.6868421 C1.97954412,70.9227346 2.19051112,72.1469614 2.52542874,73.3405263 C3.25190854,73.6750387 4.11376938,73.5062421 4.65647546,72.9231579 C4.85986323,69.5100894 5.41392933,66.1263452 6.31011236,62.8242105 C6.59379066,61.7910526 6.91206387,60.7715789 7.09195742,59.7110526 C7.29260792,58.5205263 7.32720284,57.3094737 7.41023063,56.1052632 C7.72158486,51.5005263 8.75251331,46.9163158 8.33737433,42.3184211 C8.13970171,40.5458069 7.83471914,38.7865093 7.4240686,37.05 C7.40277867,36.8900709 7.33823884,36.7387875 7.23725606,36.6121053 C7.09369607,36.4968987 6.91681556,36.4298079 6.73217031,36.4205263 L3.86771141,35.9894737 C3.28651685,35.9005263 2.52542874,35.6268421 2.06185689,36.1126316 C1.59828504,36.5984211 1.52217623,37.6521053 1.3699586,38.2610526 C1.16855028,39.095646 1.03207784,39.9442681 0.961738616,40.7994737 L0.961738616,40.7994737 Z" id="路径" fill="url(#linearGradient-14)"></path>
                            <path d="M11.6031342,75.6873684 C11.5203184,76.0569207 11.5203184,76.4399214 11.6031342,76.8094737 C11.8955257,77.5470289 12.6458781,78.0045119 13.4435837,77.9315789 C14.221228,77.8458045 14.9689203,77.586084 15.6299823,77.1721053 C16.7093436,76.6110526 17.7887049,76.0431579 18.8057954,75.3863158 C19.4345553,75.0524632 19.9550482,74.5496132 20.3072147,73.9357895 C20.6484248,73.2921579 20.4632343,72.4985822 19.8713187,72.0678947 C19.1794205,71.6847368 18.3837374,72.0678947 17.6641632,72.3484211 C16.8815482,72.6188756 16.0756026,72.8181233 15.2563572,72.9436842 C14.4329982,73.1010526 13.0215257,73.0873684 12.3019515,73.4978947 C11.5823773,73.9084211 11.7207569,75.0031579 11.6031342,75.6873684 Z" id="路径" fill="url(#linearGradient-15)"></path>
                            <path d="M6.52460083,44.8978947 C6.99509166,45.5821053 7.56244826,46.2252632 8.00526316,46.9505263 C8.57351914,47.9482689 9.01948013,49.0094392 9.33370787,50.1115789 C10.3092844,53.0947368 11.298699,56.1257895 11.3471319,59.2594737 C11.3471319,61.4557895 10.9596688,63.6315789 10.897398,65.8278947 C10.8894621,67.2880143 10.9610619,68.7474968 11.1118865,70.2 C11.2410408,71.6915789 11.3701952,73.1831579 11.4993495,74.6747368 C12.7375452,74.7901835 13.9820989,74.5325898 15.0695446,73.9357895 C14.9206998,70.2377594 15.1992626,66.535014 15.8998226,62.8994737 C16.2111768,61.1410526 16.5917209,59.3894737 16.7370195,57.6105263 C16.9168113,54.3356056 16.7428528,51.051062 16.2180958,47.8126316 C15.7130101,43.7757895 15.1940863,39.7047368 13.7687759,35.8868421 C13.8656416,36.1468421 6.91898285,36.8105263 6.32395033,36.8721053 C4.10295683,37.0910526 4.71182732,39.7321053 5.0439385,41.3194737 C5.30016607,42.5953503 5.80290721,43.8103603 6.52460083,44.8978947 Z" id="路径" fill="url(#linearGradient-16)"></path>
                            <path d="M18.4944412,19.8557895 C18.1119403,17.4754666 16.9414179,15.2879769 15.1664104,13.6363158 L13.4781786,14.7173684 C13.1529864,14.9226316 12.8277942,15.1347368 12.51644,15.4015789 C12.2050857,15.6684211 11.9144885,15.9078947 11.6238912,16.1747368 L10.7866943,16.9410526 C10.2091468,16.9629733 9.63186238,16.8913257 9.0777055,16.7289474 L9.19532821,16.8042105 C8.11646899,17.6955547 6.73888503,18.15453 5.33453578,18.0905263 L5.33453578,18.0905263 C5.18231815,18.0152632 4.92631579,18.0426316 4.73950325,17.9536842 C4.56634936,17.8783553 4.39973519,17.7891087 4.24133649,17.6868421 C3.99917209,17.5431579 3.72241277,17.2147368 3.84695446,16.9136842 C3.47435566,17.2093192 3.01004231,17.3688149 2.53234772,17.3652632 C2.12105955,17.3467189 1.71432483,17.4568493 1.3699586,17.68 C0.854286163,18.1581569 0.523872928,18.7995393 0.43589592,19.4931579 C0.43589592,19.4931579 0.43589592,19.5547368 0.43589592,19.5889474 C0.304310432,20.1846216 0.283211154,20.7989752 0.373625074,21.4021053 C0.476050879,22.671317 0.672617623,23.9313741 0.961738616,25.1721053 C1.15547014,25.9452632 1.41839148,26.7047368 1.56369012,27.4915789 C2.14488468,30.6526316 0.830277942,33.9436842 1.44606742,37.0705263 C1.83353046,37.0705263 2.1379657,37.3442105 2.46315789,37.5836842 C3.55195172,38.3451914 4.85920382,38.7409242 6.19248965,38.7126316 C7.51401538,38.7126316 8.8355411,38.5484211 10.1570668,38.5142105 C11.6654051,38.5142105 13.3467179,38.5963158 14.4814311,37.6178947 C14.0564659,34.8032575 13.9589645,31.9497425 14.1908338,29.1131579 C14.2919734,28.4330881 14.3520443,27.7476629 14.3707274,27.0605263 C14.3033163,25.8114844 14.0539691,24.578601 13.6303962,23.4 L13.1737433,21.8947368 C14.0332284,21.7767411 14.8731188,21.5466695 15.6714962,21.2105263 C16.6443461,20.8269982 17.5878004,20.3742327 18.4944412,19.8557895 L18.4944412,19.8557895 Z" id="路径" fill="url(#linearGradient-17)"></path>
                        </g>
                    </g>
                </g>
            </g>
        </g>
    </g>
</svg>