<?xml version="1.0" encoding="UTF-8"?>
<svg width="206px" height="142px" viewBox="0 0 206 142" version="1.1" xmlns="http://www.w3.org/2000/svg" xmlns:xlink="http://www.w3.org/1999/xlink">
    <title>暂无收藏</title>
    <defs>
        <linearGradient x1="50.4102564%" y1="0.173469388%" x2="50.4102564%" y2="50.1734694%" id="linearGradient-1">
            <stop stop-color="#A9A9A9" stop-opacity="0.15" offset="0%"></stop>
            <stop stop-color="#A9A9A9" stop-opacity="0" offset="100%"></stop>
        </linearGradient>
        <radialGradient cx="55.2174608%" cy="50%" fx="55.2174608%" fy="50%" r="486.133818%" gradientTransform="translate(0.552175,0.500000),scale(0.100592,1.000000),scale(1.000000,0.075785),translate(-0.552175,-0.500000)" id="radialGradient-2">
            <stop stop-color="#808184" stop-opacity="0.495164991" offset="0%"></stop>
            <stop stop-color="#FFFFFF" stop-opacity="0" offset="100%"></stop>
        </radialGradient>
        <radialGradient cx="30.6472626%" cy="35.8974359%" fx="30.6472626%" fy="35.8974359%" r="94.5945946%" id="radialGradient-3">
            <stop stop-color="#FFFFFF" offset="0%"></stop>
            <stop stop-color="#C2C2C2" offset="100%"></stop>
        </radialGradient>
        <radialGradient cx="76.78125%" cy="35.6875%" fx="76.78125%" fy="35.6875%" r="94%" id="radialGradient-4">
            <stop stop-color="#FFFFFF" offset="0%"></stop>
            <stop stop-color="#D8D8D8" offset="100%"></stop>
        </radialGradient>
        <linearGradient x1="50%" y1="-8.04061325e-15%" x2="50%" y2="100%" id="linearGradient-5">
            <stop stop-color="#EEEEEE" offset="0%"></stop>
            <stop stop-color="#D8D8D8" stop-opacity="0" offset="100%"></stop>
        </linearGradient>
        <linearGradient x1="50%" y1="-8.04061325e-15%" x2="50%" y2="100%" id="linearGradient-6">
            <stop stop-color="#DADADA" offset="0%"></stop>
            <stop stop-color="#F4F4F4" stop-opacity="0" offset="100%"></stop>
        </linearGradient>
        <linearGradient x1="0%" y1="50%" x2="100.020186%" y2="50%" id="linearGradient-7">
            <stop stop-color="#EEEEEE" offset="0%"></stop>
            <stop stop-color="#DDDDDD" offset="3%"></stop>
            <stop stop-color="#D8D8D8" offset="100%"></stop>
        </linearGradient>
        <linearGradient x1="49.985702%" y1="0%" x2="49.985702%" y2="66.3923182%" id="linearGradient-8">
            <stop stop-color="#DEDEDE" offset="0%"></stop>
            <stop stop-color="#FDFDFD" offset="100%"></stop>
        </linearGradient>
        <linearGradient x1="63.5115814%" y1="50.0685871%" x2="-2.88818988%" y2="50.0685871%" id="linearGradient-9">
            <stop stop-color="#FFFFFF" stop-opacity="0.677420236" offset="0%"></stop>
            <stop stop-color="#FFFFFF" offset="100%"></stop>
        </linearGradient>
        <linearGradient x1="63.5115814%" y1="50.0685871%" x2="-2.88818988%" y2="50.0685871%" id="linearGradient-10">
            <stop stop-color="#FFFFFF" stop-opacity="0.677420236" offset="0%"></stop>
            <stop stop-color="#FFFFFF" offset="100%"></stop>
        </linearGradient>
        <linearGradient x1="63.5115814%" y1="50.0685871%" x2="-2.88818988%" y2="50.0685871%" id="linearGradient-11">
            <stop stop-color="#FFFFFF" stop-opacity="0.677420236" offset="0%"></stop>
            <stop stop-color="#FFFFFF" offset="100%"></stop>
        </linearGradient>
        <linearGradient x1="50%" y1="24.5432862%" x2="50%" y2="85.1969545%" id="linearGradient-12">
            <stop stop-color="#E1E1E1" offset="0%"></stop>
            <stop stop-color="#E3E3E3" offset="100%"></stop>
        </linearGradient>
        <linearGradient x1="-0.0248269354%" y1="50.2090159%" x2="100%" y2="50.2090159%" id="linearGradient-13">
            <stop stop-color="#FFF7ED" offset="0%"></stop>
            <stop stop-color="#FFEBD6" offset="100%"></stop>
        </linearGradient>
        <linearGradient x1="0.0565569275%" y1="49.8869551%" x2="99.7262813%" y2="49.8869551%" id="linearGradient-14">
            <stop stop-color="#FFF7ED" offset="0%"></stop>
            <stop stop-color="#FFEBD6" offset="100%"></stop>
        </linearGradient>
        <linearGradient x1="100%" y1="50.0099384%" x2="0%" y2="50.0099384%" id="linearGradient-15">
            <stop stop-color="#3D4757" offset="0%"></stop>
            <stop stop-color="#3D4757" offset="100%"></stop>
        </linearGradient>
        <linearGradient x1="34.332338%" y1="12.9858302%" x2="50%" y2="100%" id="linearGradient-16">
            <stop stop-color="#ADB5C0" offset="0%"></stop>
            <stop stop-color="#ADB5C0" offset="100%"></stop>
        </linearGradient>
    </defs>
    <g id="页面-1" stroke="none" stroke-width="1" fill="none" fill-rule="evenodd">
        <g id="缺省图" transform="translate(-752.000000, -388.000000)">
            <g id="编组" transform="translate(725.000000, 386.000000)">
                <ellipse id="背景" fill="url(#linearGradient-1)" fill-rule="nonzero" cx="130" cy="122.115963" rx="103" ry="51.5474006"></ellipse>
                <g id="编组" transform="translate(42.000000, 40.000000)">
                    <ellipse id="椭圆形" fill="url(#radialGradient-2)" fill-rule="nonzero" opacity="0.36" style="mix-blend-mode: multiply;" cx="84.5" cy="64.5" rx="84.5" ry="8.5"></ellipse>
                    <circle id="椭圆形" fill="url(#radialGradient-3)" fill-rule="nonzero" opacity="0.400000006" cx="166" cy="39" r="11"></circle>
                    <circle id="椭圆形" fill="url(#radialGradient-4)" fill-rule="nonzero" opacity="0.66" cx="32" cy="6" r="6"></circle>
                    <polygon id="路径" fill="#FFFFFF" points="110.045 23 110.345 23 110.345 23 110.345 23 110.345 23 110.345 23 110.345 23 110.345 23 110.345 23 110.345 23 110.345 23 110.345 23 110.345 23.1721311 110.345 23.2868852 110.345 23.9590164 110.345 24.0081967 110.345 24.2786885 110.345 24.352459 110.345 24.5081967 110.345 24.5081967 110.345 24.5081967 110.345 24.5081967 110.345 24.5081967 110.345 24.5081967 110.955 24.5081967 110.955 24.5081967 110.955 24.5081967 110.955 24.5081967 110.955 24.5081967 110.955 24.5081967 110.955 24.5081967 110.955 24.5081967 110.955 24.5081967 110.955 24.5081967 110.955 25 110.955 25 110.955 25 110.955 25 110.955 25 110.955 25 110.955 25 110.955 25 110.955 25 110.955 25 110.885 25 110.885 25 110.825 25 110.825 25 110.825 25 110.775 25 110.775 25 110.775 25 110.775 25 110.775 25 110.775 25 110.775 25 110.725 25 110.105 25 110.105 25 110.105 25 110.105 25 110.105 25 110.105 25 110.105 25 110.105 25 110.105 25 110.105 25 110.105 24.942623 110.105 24.942623 110.105 24.9016393 110.105 24.852459 110.105 24.8114754 110.105 24.7622951 110.105 24.7131148 110.105 24.6557377 110.105 24.6557377 110.105 24.6557377 110.105 24.6557377 110.105 24.6557377 110.105 24.6557377 110.105 24.6557377 110.105 24.6557377 110.105 24.0409836 110.105 24 110.105 23.9508197 110.105 23.8770492 110.105 23.7131148 110.105 23.7131148 110.105 23.7131148 110.105 23.7131148 110.105 23.5327869 110.105 23.4262295 110.105 23.0737705 110.105 23.0737705 110.105 23.0737705 110.105 23.0737705 110.105 23.0737705 110.105 23.0737705 110.105 23.0737705 110.105 23.0737705 110.105 23.0737705 110.105 23.0737705 110.105 23.0737705 110.405 23.0737705"></polygon>
                </g>
                <g id="编组-5" transform="translate(97.000000, 2.000000)" fill-rule="nonzero">
                    <g id="编组-4">
                        <rect id="矩形" fill="url(#linearGradient-5)" x="0" y="5" width="72" height="100" rx="6.14"></rect>
                        <rect id="矩形" fill="url(#linearGradient-6)" x="4" y="5" width="72" height="100" rx="5.19"></rect>
                        <rect id="矩形" fill="url(#linearGradient-7)" x="22" y="2" width="37" height="7" rx="3"></rect>
                        <rect id="矩形" fill="url(#linearGradient-8)" x="27" y="0" width="26" height="5" rx="2.5"></rect>
                    </g>
                    <rect id="矩形" fill="url(#linearGradient-9)" x="16" y="37" width="26" height="5" rx="2.5"></rect>
                    <rect id="矩形" fill="url(#linearGradient-10)" x="16" y="53" width="48" height="5" rx="2.5"></rect>
                    <rect id="矩形" fill="url(#linearGradient-10)" x="16" y="68" width="48" height="5" rx="2.5"></rect>
                </g>
                <g id="编组-7" transform="translate(145.000000, 22.000000)" fill-rule="nonzero">
                    <g id="编组-8">
                        <circle id="椭圆形" fill="url(#linearGradient-11)" cx="9" cy="9" r="9"></circle>
                        <path d="M13.0528372,14.7294251 L9.45865137,12.840079 C9.35433127,12.7849689 9.22951797,12.7849689 9.12519788,12.840079 L5.53839235,14.7441857 C5.4181647,14.8078072 5.27225306,14.7977117 5.16193288,14.7181388 C5.05161269,14.6385659 4.9959885,14.5032956 5.01841961,14.3691343 L5.69673244,10.3462226 C5.71626692,10.2306384 5.677913,10.1128191 5.59407976,10.0308843 L2.67887774,7.18680117 C2.58190368,7.09186423 2.54702409,6.9502165 2.58882842,6.82110652 C2.63063275,6.69199654 2.74191654,6.59767485 2.87613191,6.57759439 L6.89300521,5.98314814 C7.00935183,5.96575181 7.10970051,5.8922464 7.16137824,5.78656489 L8.95008448,2.12864051 C9.0100599,2.00642037 9.13423077,1.92885703 9.2703731,1.92857143 C9.40651542,1.9282874 9.53100974,2.00533052 9.59149602,2.12729865 L11.3936209,5.7785137 C11.4458047,5.88410981 11.5467237,5.95716313 11.6633358,5.97375508 L15.6822219,6.55276989 C15.8164962,6.57241089 15.9280842,6.66636128 15.9703142,6.79532637 C16.0125443,6.92429145 15.9781392,7.06604772 15.8814889,7.16130573 L12.9776927,10.0161238 C12.8943466,10.0983197 12.8565055,10.2161033 12.8763819,10.3314621 L13.5707971,14.352361 C13.5937799,14.4864675 13.5386687,14.6219977 13.4286185,14.7020083 C13.3185682,14.782019 13.172648,14.7926463 13.0521662,14.7294251 L13.0528372,14.7294251 Z" id="路径" fill="url(#linearGradient-12)"></path>
                    </g>
                </g>
                <g id="编组-6" transform="translate(163.000000, 40.000000)">
                    <path d="M4.91650618,16.5651582 L4.91650618,16.5651582 C4.91650618,16.1768904 4.9881674,15.6083554 4.9881674,15.6083554 L5.10999147,15.2339543 C5.18881881,14.9219534 5.25331391,15.0120869 5.26764615,15.0120869 C5.66178286,15.0120869 5.53279267,15.7054223 5.85526816,16.4611579 C5.92864389,16.6178248 6.01491509,16.7685326 6.11324855,16.9118258 L6.49305302,17.1198264 C6.57188036,17.1683599 7.33148929,20.4755696 6.82986075,19.9417014 C6.10388141,19.2424969 5.13057679,18.8360833 4.10673439,18.8046314 C3.56821881,18.8222603 3.03287434,18.8919404 2.50868918,19.012632 C1.94504937,19.1927991 1.36757264,19.329581 0.781653779,19.4216998 C0.781653779,19.2830328 0.939308463,19.1928992 1.04680029,19.130499 C1.45031676,18.8734481 1.88017189,18.6573697 2.32953613,18.4856971 L2.78100182,18.32623 L3.01031772,18.2360964 L2.75950345,18.2707631 C2.60184877,18.2707631 2.44419408,18.34703 2.2865394,18.3608967 C1.82074147,18.4024969 0.502175021,18.7907647 0.301523605,18.7630313 C0.251360751,18.7630313 0.108038311,18.7630313 0.122370555,18.659031 C0.136702799,18.5550306 1.06829866,18.1390294 1.32627905,18.0558292 C1.85657208,17.8963621 2.43702796,17.6952948 2.58751652,17.639828 C2.58751652,17.639828 2.73083896,17.6051612 2.73800509,17.5843611 C2.74517121,17.5635611 2.60901489,17.5843611 2.60184877,17.5843611 C2.46569245,17.5843611 -0.0424502513,17.778495 0.000546480695,17.7022282 C0.0435432127,17.6259613 0.351686459,17.4387607 0.552337875,17.3694272 C1.08089284,17.2121487 1.6270221,17.1167126 2.17904757,17.0851597 L2.73800509,17.0158261 C2.73800509,17.0158261 2.93149038,17.0158261 2.94582262,16.974226 C2.96015487,16.9326259 2.83116467,16.974226 2.80966631,16.974226 C2.78816794,16.974226 2.55168591,16.974226 2.43702796,16.974226 C1.98852965,16.9430325 1.53829534,16.9430325 1.08979703,16.974226 C0.917810097,16.974226 0.437679923,17.0227595 0.430513801,16.974226 C0.387517069,16.7454254 2.20771206,16.5512915 2.5803504,16.5512915 C3.35832078,16.4990484 4.13925687,16.5036838 4.91650618,16.5651582 L4.91650618,16.5651582 Z" id="路径" fill="#FFE3CB"></path>
                    <path d="M20.9916515,14 C18.4427832,16.2968593 15.1010982,23.3329049 15.1010982,23.3329049 C15.1010982,23.3329049 13.619198,22.0390075 12.1372978,21.0360456 C8.35104277,18.2874707 5.7206699,15.9982676 5.05381481,17.0777915 C4.17949369,18.4712194 14.2119581,28.1945904 16.7608264,26.8777244 C19.9691404,22.8582207 24.0221375,19.5354309 24,16.8557617 C24.0073185,15.5848329 20.9916515,14 20.9916515,14 Z" id="路径" fill="#FFE3CB"></path>
                    <path d="M45.9726967,16.8328619 L45.9726967,16.8328619 C45.9517898,16.4540721 45.9131609,16.0768039 45.8569729,15.702646 C45.8063437,15.5388466 45.7195508,15.2931475 45.7123181,15.2685775 C45.6182924,14.9082188 45.5604305,15.0146885 45.5387323,15.0146885 C45.1481643,15.0146885 45.3072846,15.8336855 45.017975,16.7509622 C44.9556064,16.9440264 44.8781501,17.1304046 44.7865273,17.3078802 C44.6563379,17.3897799 44.5261486,17.4798695 44.4104247,17.5699592 C44.2947009,17.6600489 43.6871507,21.5748547 44.207908,20.9278471 C44.9017939,20.0571981 45.8655786,19.5232637 46.8984875,19.4372725 C47.4442921,19.423259 47.9898539,19.4754258 48.5258542,19.5928819 C49.1062395,19.7776267 49.6988326,19.909092 50.2978757,19.9860005 C50.2978757,19.830391 50.1170572,19.7239214 50.0085661,19.6584017 C49.5911342,19.3723363 49.1472913,19.1388956 48.6849745,18.9622542 L48.2148464,18.7984548 L47.9833987,18.7001751 L48.2365446,18.7001751 C48.3956649,18.7001751 48.5620179,18.7738849 48.7211382,18.7820748 C49.1912664,18.7820748 50.5437889,19.1915733 50.7390729,19.1506235 C50.7969348,19.1506235 50.9415896,19.1506235 50.9198914,19.019584 C50.8981932,18.8885444 49.9434714,18.446286 49.67586,18.3725763 C49.1261717,18.2087769 48.5330869,17.9958377 48.3811994,17.9466979 C48.3811994,17.9466979 48.2365446,17.9466979 48.2220791,17.8893681 C48.2076136,17.8320383 48.3595012,17.8893681 48.3667339,17.8893681 C48.4969232,17.8893681 51.042848,17.9794577 50.9994515,17.8893681 C50.8981932,17.6764288 50.6305818,17.5945291 50.4208323,17.5208194 C49.878248,17.3699104 49.3230235,17.2848016 48.7645346,17.2669303 L48.2003809,17.2177905 C48.2003809,17.2177905 47.9978641,17.2177905 47.9833987,17.2177905 C47.9689332,17.2177905 48.1063552,17.2177905 48.1208207,17.2177905 C48.1352862,17.2177905 48.3811994,17.2177905 48.4969232,17.2177905 C48.947855,17.1521668 49.4020379,17.1193396 49.8566785,17.1195108 C50.037497,17.1195108 50.5148579,17.1195108 50.5293234,17.0621811 C50.5293234,16.791912 48.7066727,16.6608725 48.3595012,16.6772524 C47.5615542,16.6598192 46.7636039,16.7118421 45.9726967,16.8328619 Z" id="路径" fill="#FFE3CB"></path>
                    <path d="M30.6104978,14 C33.2632641,16.1277497 36.3087584,23.6413659 36.3087584,23.6413659 C36.3087584,23.6413659 37.9093102,22.5922671 39.2727431,21.5210042 C42.9258543,18.6987806 45.2007126,16.0169294 45.9417088,17.1399084 C46.8753639,18.4475879 36.3087584,29.1528287 34.6118772,26.6113498 C31.2255246,22.9173399 27.0981759,20.3980252 27.0018464,17.8122182 C26.9055169,16.607971 30.6104978,14 30.6104978,14 Z" id="路径" fill="#FFE3CB"></path>
                    <path d="M24.7856573,14.9528874 C25.9428822,14.7068176 26.8323615,13.6686655 27,12.3684263 L26.1998014,9.16092545 C26.0549378,8.23021177 25.0753844,7.76870086 24.0958309,8.11483404 C23.1162774,8.46096723 22.895533,9.7070467 23.0403965,10.6377604 L23.3163271,14.0914004 C23.4611906,15.0605733 24.2475927,15.0605733 24.7856573,14.9528874 Z" id="路径" fill="url(#linearGradient-13)" fill-rule="nonzero"></path>
                    <path d="M27.353588,6.01099753 C27.353588,4.48334443 26.9137943,3.04735051 25.7536488,2.4515658 C23.2210436,1.15306067 20.1121571,2.92513827 19.2780655,4.36113218 C18.8306892,5.12495873 18.9065157,6.858845 19.6268674,8.53162515 C20.1253196,9.72234003 20.9064658,10.7715074 21.9016625,11.5869313 C23.5774282,12.7326712 25.488256,11.2202946 26.2389384,10.3724471 C26.6633053,9.77758086 26.9555413,9.09764262 27.0957779,8.37885984 C27.5331467,8.27798648 27.8678358,7.92278133 27.9450347,7.47754451 C28.1183272,6.90925384 27.8712244,6.29653962 27.353588,6.01099753 L27.353588,6.01099753 Z" id="路径" fill="url(#linearGradient-14)" fill-rule="nonzero"></path>
                    <path d="M27.2933605,9 C27.4912212,8.17759851 27.6217089,7.33757247 27.6832782,6.48987073 C27.6315056,6.22068897 27.465119,5.99479363 27.235595,5.88207213 C26.9952041,5.81442897 26.7410212,5.83665829 26.5135253,5.94522004 C25.7914556,4.56385959 25.1993585,4.04288936 24.542275,3.79819123 C23.6967653,3.45643055 22.7736938,3.41772615 21.9067207,3.68768239 C20.9929359,4.19429638 20.1937731,4.91692458 19.5672149,5.80313725 C19.1489757,5.25557666 18.9487396,4.54772707 19.0112213,3.83765867 C19.0245814,2.8850796 19.4643813,2.00021127 20.1881949,1.46961219 C21.1634178,0.71666258 22.2951991,0.241846301 23.4808326,0.0882517396 C24.7739484,-0.184259541 26.366191,0.171600517 27.2933605,1.19396652 C28.6352366,2.54090611 28.9953551,4.3399743 29,6.2178541 C29,7.62289502 28.1526235,8.73951489 27.2933605,9 Z" id="头发" fill="#3D4757"></path>
                    <path d="M19.0421985,35 L32.3466752,35.7864154 C33.0888736,38.7297023 33.1987007,42.8014298 32.6761565,48.0015979 C32.1536123,53.201766 31.5279774,60.8539539 30.7992517,70.9581614 L30.7992517,76.042231 C30.4789233,76.6807437 29.9204737,77 29.123903,77 C28.3273323,77 27.5854738,76.6807437 26.8983277,76.042231 C27.2053144,74.1131327 27.2053144,72.4184429 26.8983277,70.9581614 C26.4378476,68.7677393 25.8492729,61.7519288 25.8492729,60.7832689 C25.8492729,60.1374957 25.8492729,55.8769387 25.8492729,48.0015979 L25.3509353,46.5522784 L24.2819637,48.0015979 C23.6402139,54.9905909 23.3193389,59.2511479 23.3193389,60.7832689 C23.3193389,63.0814504 24.3526132,65.5390872 24.8517742,67.5786647 C25.1845483,68.938383 25.4772857,70.8966817 25.7299864,73.4535608 L22.6126598,74.1031056 C19.5375533,66.0336048 18,61.7962568 18,61.3910617 C18,60.7832689 18,50.7258592 18,48.6390688 C18,47.2478752 18.1867963,43.5201874 18.560389,37.4560055 L19.0421985,35 Z" id="路径-3" fill="url(#linearGradient-15)"></path>
                    <path d="M35.9992508,21.449733 C36.0578874,21.449733 32.6642912,14.1549351 29.5052416,13.0736602 L29.35865,12.9746703 C28.4610136,12.5481979 27.5224996,12.2214928 26.5587499,12 C26.5587499,12 25.2304043,15.3593242 22.8849382,14.4531854 C22.0420364,14.0191526 22.5331183,12.3363234 22.5331183,12.3363234 L22.4598225,12.3820111 C20.8348484,12.3973406 19.0658695,13.450576 18.0271171,14.7488748 C16.6146322,16.5912139 15.5840247,18.7170298 15,20.9928563 C15.9640363,22.3703203 17.0565503,23.6456005 18.2616637,24.8001621 C18.1077425,27.9221529 17.8365529,36.1022869 17.71195,37.4805316 C22.4322004,39.4222575 27.352041,39.1594695 32.1602464,38.5655298 C32.2863957,38.5611343 32.4086083,38.5188126 32.5120663,38.4436961 C32.7026354,38.2761746 32.6733171,37.9411317 32.6293396,37.6822349 C32.0258177,33.9337633 31.7546118,28.6001093 31.6896155,24.8001621 C32.1587087,25.744374 32.5120663,25.8961477 32.5120663,25.8961477 C32.5120663,25.8961477 35.031746,23.2163229 35.9992508,21.449733 Z" id="路径" fill="url(#linearGradient-16)" fill-rule="nonzero"></path>
                    <polygon id="路径-4" fill="#3D4757" points="22.2812417 74.6918142 25.225136 74 26.6414124 74.6918142 27 76.3093981 26.8077878 77.2380402 21.896122 81 18.3088554 81 18 79.6225078 20.936567 77.5 22.2812417 75.4994312"></polygon>
                    <path d="M26.9975939,76 L30.3546176,76.2310142 L31,77.3508467 L31,80.1460151 L26.6568412,82.8661329 C25.0982507,83.0446224 24.1125374,83.0446224 23.6997014,82.8661329 C23.0804475,82.5983987 22.8668295,81.489711 23.0804475,81.0059083 C23.2228594,80.6833732 23.8519012,80.0188478 24.967573,79.012332 L26.9975939,77.0834346 L26.9975939,76 Z" id="路径-5" fill="#3D4757"></path>
                </g>
            </g>
        </g>
    </g>
</svg>