<?xml version="1.0" encoding="UTF-8"?>
<svg width="206px" height="143px" viewBox="0 0 206 143" version="1.1" xmlns="http://www.w3.org/2000/svg" xmlns:xlink="http://www.w3.org/1999/xlink">
    <title>网络断开</title>
    <defs>
        <radialGradient cx="69.711875%" cy="36.1875%" fx="69.711875%" fy="36.1875%" r="94%" id="radialGradient-1">
            <stop stop-color="#FFFFFF" offset="0%"></stop>
            <stop stop-color="#D8D8D8" offset="100%"></stop>
        </radialGradient>
        <radialGradient cx="30.2390476%" cy="35.952381%" fx="30.2390476%" fy="35.952381%" r="94%" id="radialGradient-2">
            <stop stop-color="#FFFFFF" offset="0%"></stop>
            <stop stop-color="#C2C2C2" offset="100%"></stop>
        </radialGradient>
        <linearGradient x1="49.974359%" y1="0.142857143%" x2="49.974359%" y2="50.1428571%" id="linearGradient-3">
            <stop stop-color="#A9A9A9" stop-opacity="0.15" offset="0%"></stop>
            <stop stop-color="#A9A9A9" stop-opacity="0" offset="100%"></stop>
        </linearGradient>
        <linearGradient x1="28.6651009%" y1="23.4184096%" x2="91.6178528%" y2="78.0513632%" id="linearGradient-4">
            <stop stop-color="#8CAEFB" offset="0%"></stop>
            <stop stop-color="#78BAFF" offset="100%"></stop>
        </linearGradient>
        <linearGradient x1="59.1509947%" y1="20.7239582%" x2="13.761641%" y2="73.8269151%" id="linearGradient-5">
            <stop stop-color="#EEEEEE" offset="0%"></stop>
            <stop stop-color="#D8D8D8" offset="100%"></stop>
        </linearGradient>
        <linearGradient x1="103.030688%" y1="19.0430002%" x2="22.2134238%" y2="101.830282%" id="linearGradient-6">
            <stop stop-color="#F5F5F5" offset="0%"></stop>
            <stop stop-color="#DEDEDE" offset="100%"></stop>
        </linearGradient>
        <linearGradient x1="95.1839606%" y1="49.4493914%" x2="4.18396056%" y2="49.7712033%" id="linearGradient-7">
            <stop stop-color="#DEDEDE" offset="0%"></stop>
            <stop stop-color="#FDFDFD" offset="100%"></stop>
        </linearGradient>
        <linearGradient x1="-6.17808219%" y1="28.1527491%" x2="85.8219178%" y2="78.0538563%" id="linearGradient-8">
            <stop stop-color="#F8F8F8" stop-opacity="0" offset="0%"></stop>
            <stop stop-color="#DEDEDE" offset="100%"></stop>
        </linearGradient>
        <linearGradient x1="46.5429363%" y1="113.263158%" x2="49.734072%" y2="22.2631579%" id="linearGradient-9">
            <stop stop-color="#F8F8F8" offset="0%"></stop>
            <stop stop-color="#DEDEDE" offset="100%"></stop>
        </linearGradient>
        <linearGradient x1="51.025872%" y1="14.3081773%" x2="49.1442251%" y2="100%" id="linearGradient-10">
            <stop stop-color="#FFF7ED" offset="0%"></stop>
            <stop stop-color="#FFEBD6" offset="100%"></stop>
        </linearGradient>
        <linearGradient x1="49.8197264%" y1="-0.160853372%" x2="49.8197264%" y2="99.7658088%" id="linearGradient-11">
            <stop stop-color="#3D4757" offset="0%"></stop>
            <stop stop-color="#272557" offset="100%"></stop>
        </linearGradient>
        <linearGradient x1="-0.0328407225%" y1="49.9537932%" x2="100.131363%" y2="49.9537932%" id="linearGradient-12">
            <stop stop-color="#ADB5C0" offset="0%"></stop>
            <stop stop-color="#ADB5C0" offset="100%"></stop>
        </linearGradient>
        <linearGradient x1="100%" y1="50.0099384%" x2="0%" y2="50.0099384%" id="linearGradient-13">
            <stop stop-color="#3D4757" offset="0%"></stop>
            <stop stop-color="#3D4757" offset="100%"></stop>
        </linearGradient>
        <linearGradient x1="100.451031%" y1="58.3821942%" x2="46.5850515%" y2="49.1876817%" id="linearGradient-14">
            <stop stop-color="#1F1E4A" offset="0%"></stop>
            <stop stop-color="#424677" offset="100%"></stop>
        </linearGradient>
        <linearGradient x1="101.676338%" y1="54.8821395%" x2="25.7253385%" y2="47.3962709%" id="linearGradient-15">
            <stop stop-color="#1F1E4A" offset="0%"></stop>
            <stop stop-color="#424677" offset="100%"></stop>
        </linearGradient>
    </defs>
    <g id="页面-1" stroke="none" stroke-width="1" fill="none" fill-rule="evenodd">
        <g id="缺省图" transform="translate(-1070.000000, -386.000000)">
            <g id="编组" transform="translate(1048.000000, 386.000000)">
                <g id="网络断开" transform="translate(22.000000, 0.000000)">
                    <circle id="椭圆形" fill="url(#radialGradient-1)" fill-rule="nonzero" opacity="0.66" cx="58.5644172" cy="15.4905521" r="4.2208589"></circle>
                    <circle id="椭圆形" fill="url(#radialGradient-2)" fill-rule="nonzero" opacity="0.84" cx="145.883436" cy="5.72981595" r="5.5398773"></circle>
                    <ellipse id="背景" fill="url(#linearGradient-3)" fill-rule="nonzero" cx="102.883436" cy="122.705521" rx="102.883436" ry="51.7055215"></ellipse>
                    <path d="M86.9022086,19.5214724 L88.9704294,19.5214724 L89.6141104,21.2045399 C88.4352117,22.5871697 87.8476938,24.3781519 87.9785276,26.1904294 C88.0424856,27.1387501 87.4031427,27.9912074 86.4748466,28.1953374 C86.0529115,28.2889391 85.6111599,28.1923861 85.2667514,27.9312859 C84.9223429,27.6701857 84.7100798,27.2709222 84.6862577,26.8393865 C84.4918142,24.209681 85.2815858,21.6015543 86.9022086,19.5214724 L86.9022086,19.5214724 Z M87.9574233,17.5218405 C89.6897385,16.3871855 91.7221565,15.7973066 93.7927607,15.8282209 C94.225257,15.8272085 94.636315,16.016447 94.9167751,16.3456828 C95.1972352,16.6749186 95.3187159,17.1108341 95.2489571,17.5376687 C95.1055699,18.4757363 94.2985334,19.1684427 93.3495706,19.1679755 C92.3462225,19.150252 91.3520241,19.3613613 90.442454,19.7852761 L90.0045399,18.202454 L87.9574233,17.5218405 Z M81.2515337,17.5693252 L82.2803681,19.5214724 L84.0267485,19.5214724 C82.7741612,21.8158316 82.2757508,24.4463306 82.6022086,27.0398773 C82.7163348,27.9845631 82.0642886,28.850853 81.124908,29.0025767 C80.6805182,29.0731495 80.2265732,28.9593346 79.8680454,28.687451 C79.5095177,28.4155675 79.2774553,28.0091601 79.2255215,27.5622086 C78.7896782,24.099309 79.5013731,20.5890222 81.2515337,17.5693252 L81.2515337,17.5693252 Z M82.7815951,14.1662577 C85.9729009,11.2317668 90.219484,9.71975474 94.5472393,9.97705521 C94.9967826,10.0064288 95.4153056,10.2164742 95.707505,10.5593612 C95.9997044,10.9022483 96.1407071,11.3487891 96.0984049,11.7973006 C95.9961195,12.7356191 95.1784829,13.4304944 94.2359509,13.3801227 C90.8903118,13.1810167 87.6050519,14.3350403 85.1188957,16.5826994 L83.3619632,16.0287117 L82.7815951,14.1662577 Z M77.1045399,11.9872393 L78.4921472,12.3407362 L79.6106748,14.4511656 C76.9430128,18.2507166 75.8241405,22.9243197 76.4819632,27.52 C76.5481345,27.9750561 76.4299056,28.4376995 76.1535251,28.8052163 C75.8771446,29.172733 75.4654842,29.4147095 75.0099387,29.4774233 C74.0602715,29.6062654 73.1833687,28.9480006 73.0419632,28.0001227 C72.2584232,22.5166303 73.6004205,16.9410186 76.7932515,12.4146012 L77.1045399,11.9872393 Z M79.9905521,7.97742331 C84.2416181,4.73622202 89.5405372,3.18036918 94.8690798,3.60883436 C95.495259,3.64574488 96.052813,4.01761294 96.3274909,4.58154102 C96.6021688,5.14546911 96.5512351,5.81371914 96.1942621,6.32950311 C95.8372891,6.84528707 95.229816,7.12835733 94.6052761,7.06993865 C89.9890428,6.69369588 85.4028056,8.08975326 81.7791411,10.9742331 L80.9719018,8.33619632 L79.9905521,7.97742331 Z M94.1146012,27.2931523 C92.8033485,27.2931523 91.7403681,26.2301485 91.7403681,24.9188957 C91.7403681,23.607643 92.8033485,22.5446626 94.1146012,22.5446626 C95.425854,22.5446626 96.4888344,23.607643 96.4888344,24.9188957 C96.4874392,25.5508985 96.2346756,26.1563834 95.7862989,26.6017908 C95.3379221,27.0471981 94.7307711,27.2959331 94.098773,27.2931523 L94.1146012,27.2931523 Z" id="形状结合" fill="url(#linearGradient-4)"></path>
                    <path d="M141.330184,56.9815951 L148.009693,62.4053988 C151.714711,65.396512 152.293444,70.8247984 149.302331,74.5298158 C146.311218,78.2348333 140.882932,78.8135671 137.177914,75.822454 L137.177914,75.822454 L130.498405,70.3933742 C126.789017,67.4080888 126.202015,61.9809835 129.187301,58.2715952 C132.172586,54.562207 137.599691,53.9752055 141.30908,56.9604908 L141.330184,56.9815951 Z" id="矩形" fill="url(#linearGradient-5)"></path>
                    <g id="编组" transform="translate(81.251534, 8.441718)">
                        <path d="M10.2988957,72.4510429 C21.5158282,83.6890798 44.4825767,78.8931288 61.5981595,61.7353374 L61.5981595,61.7353374 C78.7137423,44.5828221 83.5044172,21.5633129 72.2822086,10.3252761" id="路径" fill="url(#linearGradient-6)"></path>
                        <ellipse id="椭圆形" fill="url(#linearGradient-7)" fill-rule="nonzero" transform="translate(41.310319, 41.708952) rotate(-45.000000) translate(-41.310319, -41.708952) " cx="41.3103194" cy="41.7089525" rx="43.8811043" ry="14.3720245"></ellipse>
                    </g>
                    <polygon id="路径" fill="url(#linearGradient-8)" points="130.239877 47.8909202 117.899141 55.256319 91.7245399 22.0170552"></polygon>
                    <polygon id="路径" fill="url(#linearGradient-9)" points="130.239877 47.869816 117.577301 54.971411 118.996564 67.9188957"></polygon>
                </g>
                <g id="人物" transform="translate(64.000000, 50.000000)">
                    <path d="M10.2814815,9.7037037 L12.3037037,3.4 L16.7481481,2.75555556 C17.562963,2.42469136 18.3037037,2.95802469 18.9703704,4.35555556 C20,6.45185185 19.9111111,11.5185185 19.9259259,12.0592593 C19.9407407,12.6 19.9259259,12.8444444 19.1851852,13.1333333 C18.9333333,13.2222222 17.2,12.962963 16.7555556,13.3037037 C16.437037,13.5407407 16.3259259,14.1925926 16.4,15.2592593 C15.6116832,15.9702024 14.6288978,16.4293515 13.5777778,16.5777778 C12.7206238,16.5223325 11.9033802,16.1954351 11.2444444,15.6444444 L12.3037037,12.7555556 L10.2814815,9.7037037 Z" id="脸" fill="url(#linearGradient-10)"></path>
                    <path d="M9.25185185,3.63703704 C9.78523996,2.08735303 11.0492965,0.900913959 12.6296296,0.466666667 C14.0879728,0.0963746647 15.6157309,0.0963746647 17.0740741,0.466666667 C18.2444444,0.77037037 18.7333333,0.62962963 19.5037037,1.88148148 C19.9283497,2.57809908 20.0563967,3.41574011 19.8592593,4.20740741 C18.707606,3.63536561 17.4413896,3.33147367 16.1555556,3.31851852 C15.0505335,3.50864358 14.0369129,4.05184028 13.2666667,4.86666667 C12.6518519,5.47407407 12.2592593,6.34814815 12.1259259,8.14074074 C11.8203827,8.15818643 11.5289727,8.27527082 11.2962963,8.47407407 C11.0968598,8.71243169 11.0226159,9.03140542 11.0962963,9.33333333 C11.5876329,10.1721192 12.1528372,10.9653884 12.7851852,11.7037037 C11.6987654,11.8962963 10.7876543,11.2814815 10.0518519,9.85925926 C9.12107851,7.92575172 8.84045309,5.74310956 9.25185185,3.63703704 Z" id="头发" fill="url(#linearGradient-11)"></path>
                    <path d="M11.2962963,13.5481481 C10.8765432,15.1580247 11.3703704,15.9604938 12.7777778,15.9555556 C14.1851852,15.9506173 15.837037,15.1481481 17.7333333,13.5481481 C19.0342338,13.5364736 20.3216665,13.8121714 21.5037037,14.3555556 C22.7947303,15.265921 23.9538306,16.3502406 24.9481481,17.5777778 L27.8074074,20.6518519 C26.2666667,21.1851852 25.3111111,21.5481481 24.9481481,21.7333333 C24.4366457,22.1036005 24.0492728,22.6200977 23.837037,23.2148148 L5.6962963,41.1111111 L3.17037037,42.5925926 L0,40.5037037 C0.138271605,34.6271605 0.328395062,30.217284 0.57037037,27.2740741 C0.933333333,22.8296296 1.40740741,20.5111111 2.57777778,18.1851852 C3.74814815,15.8592593 6.42962963,14.9111111 7.76296296,14.3555556 C8.89779299,13.9245078 10.0868783,13.652788 11.2962963,13.5481481 L11.2962963,13.5481481 Z" id="上半身" fill="url(#linearGradient-12)"></path>
                    <path d="M0,40.5555556 C3.28888889,41.4518519 5.04444444,41.7185185 5.24444444,41.037037 C5.44444444,40.3555556 5.68888889,37.3333333 5.98518519,31.962963 C5.35802469,30.9753086 5.35802469,30.1234568 5.98518519,29.4074074 C6.61234568,28.691358 8.23950617,28.2296296 10.8666667,28.0222222 C12.0271605,26.4716049 13.091358,25.6098765 14.0592593,25.437037 C15.0271605,25.2641975 16.0790123,25.7407407 17.2148148,26.8666667 C18.1432099,24.2197531 20.037037,23.017284 22.8962963,23.2592593 C27.0814815,23.6074074 28.4296296,39.3037037 28.5925926,39.9851852 C29.1758761,42.6856951 29.5228661,45.4318726 29.6296296,48.1925926 C29.6296296,49.5777778 24.9777778,47.8888889 25.1851852,48.9333333 C25.4814815,50.5283951 24.2469136,51.8395062 21.4814815,52.8666667 L17.1851852,47.637037 C15.6074074,48 13.8296296,48.437037 11.8592593,48.9333333 C9.44548629,49.6727881 6.86562482,49.6727881 4.45185185,48.9333333 C2.34074074,48.237037 1.88888889,47.3555556 1.16296296,45.3925926 C0.627762106,43.8193318 0.238466539,42.2001598 0,40.5555556 Z" id="下半身" fill="url(#linearGradient-13)"></path>
                    <path d="M9.68148148,27.8518519 C9.68148148,27.8518519 11.9777778,34.0296296 13.837037,34.8518519 C15.8814815,35.7555556 17.6,34.1111111 18.5555556,33.8888889 C19.4531286,33.5542075 20.2853771,33.0653869 21.0148148,32.4444444 C22.0222222,31.6074074 22.437037,30.2222222 23.0814815,30.2222222 C23.7259259,30.2222222 22.7777778,32.0740741 23.0814815,32.0740741 C23.3851852,32.0740741 26.837037,30.0148148 26.837037,28.8296296 C26.837037,27.6444444 22.8148148,23.7481481 22.8814815,23.4518519 C22.9481481,23.1555556 24.8666667,20.6 26.2296296,20.8592593 C27.5925926,21.1185185 29.0074074,23.8222222 29.6444444,24.8074074 C31.0740741,27.0296296 32.0592593,29.6962963 31.4592593,30.9037037 C30.1111111,33.5925926 17.0518519,38.1703704 15.3333333,38.8148148 C13.6148148,39.4592593 12.9407407,39.7925926 11.3851852,39.1333333 C9.82962963,38.4740741 7.81481481,35.0666667 6.62962963,33.637037 C5.90176092,32.8350295 5.48182153,31.8009288 5.44444444,30.7185185 C5.44444444,29.0888889 6.18518519,28.7851852 6.65185185,28.4962963 C7.11851852,28.2074074 8.14814815,28.0444444 9.68148148,27.8518519 Z" id="路径" fill="#FDDCBD"></path>
                    <path d="M25.6444444,48.5777778 C25.962963,48.2666667 26.9703704,47.8814815 28.6592593,47.4296296 C29.3836033,47.658174 30.045285,48.0511267 30.5925926,48.5777778 C31.6222222,49.4962963 32.6,50.9185185 33.5555556,51.8296296 C34.361944,52.5260855 35.2747579,53.088779 36.2592593,53.4962963 C35.3300674,55.0691993 33.3927698,55.7296417 31.6962963,55.0518519 C29.7950617,54.4592593 27.4839506,52.9604938 24.762963,50.5555556 C24.8892464,49.8337074 25.1920601,49.154285 25.6444444,48.5777778 L25.6444444,48.5777778 Z" id="鞋子" fill="url(#linearGradient-14)"></path>
                    <path d="M21.4148148,52.8148148 C21.7333333,52.5037037 22.7333333,52.1185185 24.4222222,51.6592593 C25.1455221,51.89381 25.8064395,52.2888411 26.3555556,52.8148148 C27.3851852,53.7333333 28.3703704,55.1555556 29.362963,56.0666667 C30.1689528,56.7580031 31.0788863,57.3179622 32.0592593,57.7259259 C31.1324192,59.3016034 29.1945764,59.9653775 27.4962963,59.2888889 C25.6,58.6962963 23.291358,57.1975309 20.5703704,54.7925926 C20.6857069,54.074147 20.9756764,53.3950079 21.4148148,52.8148148 L21.4148148,52.8148148 Z" id="路径" fill="url(#linearGradient-15)"></path>
                </g>
            </g>
        </g>
    </g>
</svg>