<?xml version="1.0" encoding="UTF-8"?>
<svg width="206px" height="141px" viewBox="0 0 206 141" version="1.1" xmlns="http://www.w3.org/2000/svg" xmlns:xlink="http://www.w3.org/1999/xlink">
    <title>暂无图表</title>
    <defs>
        <linearGradient x1="50.4102564%" y1="0.173469388%" x2="50.4102564%" y2="50.1734694%" id="linearGradient-1">
            <stop stop-color="#A9A9A9" stop-opacity="0.15" offset="0%"></stop>
            <stop stop-color="#A9A9A9" stop-opacity="0" offset="100%"></stop>
        </linearGradient>
        <radialGradient cx="55.2174608%" cy="50%" fx="55.2174608%" fy="50%" r="486.133818%" gradientTransform="translate(0.552175,0.500000),scale(0.100592,1.000000),scale(1.000000,0.075785),translate(-0.552175,-0.500000)" id="radialGradient-2">
            <stop stop-color="#808184" stop-opacity="0.495164991" offset="0%"></stop>
            <stop stop-color="#FFFFFF" stop-opacity="0" offset="100%"></stop>
        </radialGradient>
        <radialGradient cx="30.6472626%" cy="35.8974359%" fx="30.6472626%" fy="35.8974359%" r="94.5945946%" id="radialGradient-3">
            <stop stop-color="#FFFFFF" offset="0%"></stop>
            <stop stop-color="#C2C2C2" offset="100%"></stop>
        </radialGradient>
        <radialGradient cx="76.78125%" cy="35.6875%" fx="76.78125%" fy="35.6875%" r="94%" id="radialGradient-4">
            <stop stop-color="#FFFFFF" offset="0%"></stop>
            <stop stop-color="#D8D8D8" offset="100%"></stop>
        </radialGradient>
        <linearGradient x1="0%" y1="50%" x2="100%" y2="50%" id="linearGradient-5">
            <stop stop-color="#D6D7D8" offset="0%"></stop>
            <stop stop-color="#DDDDDD" offset="3%"></stop>
            <stop stop-color="#D8D8D8" offset="100%"></stop>
        </linearGradient>
        <linearGradient x1="63.5222518%" y1="50%" x2="-2.87181438%" y2="50%" id="linearGradient-6">
            <stop stop-color="#DEDEDE" offset="0%"></stop>
            <stop stop-color="#FDFDFD" offset="100%"></stop>
        </linearGradient>
        <linearGradient x1="63.526971%" y1="49.6732026%" x2="-2.88381743%" y2="49.6732026%" id="linearGradient-7">
            <stop stop-color="#DEDEDE" offset="0%"></stop>
            <stop stop-color="#FDFDFD" offset="100%"></stop>
        </linearGradient>
        <linearGradient x1="63.526971%" y1="50%" x2="-2.88381743%" y2="50%" id="linearGradient-8">
            <stop stop-color="#DEDEDE" offset="0%"></stop>
            <stop stop-color="#FDFDFD" offset="100%"></stop>
        </linearGradient>
        <linearGradient x1="51.025872%" y1="14.3081773%" x2="49.1442251%" y2="100%" id="linearGradient-9">
            <stop stop-color="#FFF7ED" offset="0%"></stop>
            <stop stop-color="#FFEBD6" offset="100%"></stop>
        </linearGradient>
        <linearGradient x1="49.8197264%" y1="-0.160853372%" x2="49.8197264%" y2="99.7658088%" id="linearGradient-10">
            <stop stop-color="#3D4757" offset="0%"></stop>
            <stop stop-color="#272557" offset="100%"></stop>
        </linearGradient>
        <linearGradient x1="-0.0328407225%" y1="49.9537932%" x2="100.131363%" y2="49.9537932%" id="linearGradient-11">
            <stop stop-color="#ADB5C0" offset="0%"></stop>
            <stop stop-color="#ADB5C0" offset="100%"></stop>
        </linearGradient>
        <linearGradient x1="100%" y1="50.0099384%" x2="0%" y2="50.0099384%" id="linearGradient-12">
            <stop stop-color="#3D4757" offset="0%"></stop>
            <stop stop-color="#3D4757" offset="100%"></stop>
        </linearGradient>
        <linearGradient x1="100.451031%" y1="58.3821942%" x2="46.5850515%" y2="49.1876817%" id="linearGradient-13">
            <stop stop-color="#1F1E4A" offset="0%"></stop>
            <stop stop-color="#424677" offset="100%"></stop>
        </linearGradient>
        <linearGradient x1="101.676338%" y1="54.8821395%" x2="25.7253385%" y2="47.3962709%" id="linearGradient-14">
            <stop stop-color="#1F1E4A" offset="0%"></stop>
            <stop stop-color="#424677" offset="100%"></stop>
        </linearGradient>
        <linearGradient x1="-0.248772243%" y1="49.3277733%" x2="100%" y2="49.3277733%" id="linearGradient-15">
            <stop stop-color="#8CAEFB" offset="0%"></stop>
            <stop stop-color="#78BAFF" offset="100%"></stop>
        </linearGradient>
        <filter x="-88.9%" y="-90.0%" width="277.8%" height="280.0%" filterUnits="objectBoundingBox" id="filter-16">
            <feGaussianBlur stdDeviation="10" in="SourceGraphic"></feGaussianBlur>
        </filter>
        <linearGradient x1="-0.248772243%" y1="49.3277733%" x2="100%" y2="49.3277733%" id="linearGradient-17">
            <stop stop-color="#8CAEFB" offset="0%"></stop>
            <stop stop-color="#78BAFF" offset="100%"></stop>
        </linearGradient>
    </defs>
    <g id="页面-1" stroke="none" stroke-width="1" fill="none" fill-rule="evenodd">
        <g id="缺省图" transform="translate(-118.000000, -397.000000)">
            <g id="编组" transform="translate(91.000000, 397.000000)">
                <g id="编组-4" transform="translate(27.000000, 1.000000)">
                    <g id="无权限访问">
                        <g id="编组-3" transform="translate(0.000000, 38.000000)">
                            <ellipse id="背景" fill="url(#linearGradient-1)" fill-rule="nonzero" cx="103" cy="82.1159633" rx="103" ry="51.5474006"></ellipse>
                            <g id="编组" transform="translate(15.000000, 0.000000)">
                                <ellipse id="椭圆形" fill="url(#radialGradient-2)" fill-rule="nonzero" opacity="0.36" style="mix-blend-mode: multiply;" cx="84.5" cy="64.5" rx="84.5" ry="8.5"></ellipse>
                                <circle id="椭圆形" fill="url(#radialGradient-3)" fill-rule="nonzero" opacity="0.400000006" cx="166" cy="39" r="11"></circle>
                                <circle id="椭圆形" fill="url(#radialGradient-4)" fill-rule="nonzero" opacity="0.66" cx="17" cy="6" r="6"></circle>
                                <polygon id="路径" fill="#FFFFFF" points="110.045 23 110.345 23 110.345 23 110.345 23 110.345 23 110.345 23 110.345 23 110.345 23 110.345 23 110.345 23 110.345 23 110.345 23 110.345 23.1721311 110.345 23.2868852 110.345 23.9590164 110.345 24.0081967 110.345 24.2786885 110.345 24.352459 110.345 24.5081967 110.345 24.5081967 110.345 24.5081967 110.345 24.5081967 110.345 24.5081967 110.345 24.5081967 110.955 24.5081967 110.955 24.5081967 110.955 24.5081967 110.955 24.5081967 110.955 24.5081967 110.955 24.5081967 110.955 24.5081967 110.955 24.5081967 110.955 24.5081967 110.955 24.5081967 110.955 25 110.955 25 110.955 25 110.955 25 110.955 25 110.955 25 110.955 25 110.955 25 110.955 25 110.955 25 110.885 25 110.885 25 110.825 25 110.825 25 110.825 25 110.775 25 110.775 25 110.775 25 110.775 25 110.775 25 110.775 25 110.775 25 110.725 25 110.105 25 110.105 25 110.105 25 110.105 25 110.105 25 110.105 25 110.105 25 110.105 25 110.105 25 110.105 25 110.105 24.942623 110.105 24.942623 110.105 24.9016393 110.105 24.852459 110.105 24.8114754 110.105 24.7622951 110.105 24.7131148 110.105 24.6557377 110.105 24.6557377 110.105 24.6557377 110.105 24.6557377 110.105 24.6557377 110.105 24.6557377 110.105 24.6557377 110.105 24.6557377 110.105 24.0409836 110.105 24 110.105 23.9508197 110.105 23.8770492 110.105 23.7131148 110.105 23.7131148 110.105 23.7131148 110.105 23.7131148 110.105 23.5327869 110.105 23.4262295 110.105 23.0737705 110.105 23.0737705 110.105 23.0737705 110.105 23.0737705 110.105 23.0737705 110.105 23.0737705 110.105 23.0737705 110.105 23.0737705 110.105 23.0737705 110.105 23.0737705 110.105 23.0737705 110.405 23.0737705"></polygon>
                            </g>
                        </g>
                        <g id="编组-11" transform="translate(50.000000, 0.000000)" fill-rule="nonzero">
                            <rect id="矩形" stroke="#EFEFEF" stroke-width="0.8" fill="#FFFFFF" x="0.257142857" y="0.188571429" width="105.471429" height="73"></rect>
                            <rect id="矩形" fill="url(#linearGradient-5)" x="4.87229305e-14" y="7.61295788e-15" width="105.968571" height="6.41142857"></rect>
                            <circle id="椭圆形" fill="#EAEAEA" cx="5.46" cy="3.49714286" r="1.46571429"></circle>
                            <circle id="椭圆形" fill="#EAEAEA" cx="10.0285714" cy="3.49714286" r="1.46571429"></circle>
                            <circle id="椭圆形" fill="#EAEAEA" cx="14.5971429" cy="3.49714286" r="1.46571429"></circle>
                            <rect id="矩形" fill="url(#linearGradient-6)" x="7.16571429" y="16.1828571" width="45.0685714" height="2.62285714" rx="1.31142857"></rect>
                            <rect id="矩形" fill="url(#linearGradient-7)" x="7.16571429" y="22.44" width="82.6285714" height="2.62285714" rx="1.31142857"></rect>
                            <rect id="矩形" fill="url(#linearGradient-8)" x="7.16571429" y="28.6885714" width="82.6285714" height="2.62285714" rx="1.31142857"></rect>
                            <rect id="矩形" fill="url(#linearGradient-6)" x="7.16571429" y="36.4028571" width="45.0685714" height="2.62285714" rx="1.31142857"></rect>
                            <rect id="矩形" fill="url(#linearGradient-8)" x="7.16571429" y="42.66" width="82.6285714" height="2.62285714" rx="1.31142857"></rect>
                            <rect id="矩形" fill="url(#linearGradient-7)" x="7.16571429" y="48.9171429" width="82.6285714" height="2.62285714" rx="1.31142857"></rect>
                        </g>
                    </g>
                    <g id="人物" transform="translate(34.000000, 61.000000)">
                        <path d="M10.2814815,9.7037037 L12.3037037,3.4 L16.7481481,2.75555556 C17.562963,2.42469136 18.3037037,2.95802469 18.9703704,4.35555556 C20,6.45185185 19.9111111,11.5185185 19.9259259,12.0592593 C19.9407407,12.6 19.9259259,12.8444444 19.1851852,13.1333333 C18.9333333,13.2222222 17.2,12.962963 16.7555556,13.3037037 C16.437037,13.5407407 16.3259259,14.1925926 16.4,15.2592593 C15.6116832,15.9702024 14.6288978,16.4293515 13.5777778,16.5777778 C12.7206238,16.5223325 11.9033802,16.1954351 11.2444444,15.6444444 L12.3037037,12.7555556 L10.2814815,9.7037037 Z" id="脸" fill="url(#linearGradient-9)"></path>
                        <path d="M9.25185185,3.63703704 C9.78523996,2.08735303 11.0492965,0.900913959 12.6296296,0.466666667 C14.0879728,0.0963746647 15.6157309,0.0963746647 17.0740741,0.466666667 C18.2444444,0.77037037 18.7333333,0.62962963 19.5037037,1.88148148 C19.9283497,2.57809908 20.0563967,3.41574011 19.8592593,4.20740741 C18.707606,3.63536561 17.4413896,3.33147367 16.1555556,3.31851852 C15.0505335,3.50864358 14.0369129,4.05184028 13.2666667,4.86666667 C12.6518519,5.47407407 12.2592593,6.34814815 12.1259259,8.14074074 C11.8203827,8.15818643 11.5289727,8.27527082 11.2962963,8.47407407 C11.0968598,8.71243169 11.0226159,9.03140542 11.0962963,9.33333333 C11.5876329,10.1721192 12.1528372,10.9653884 12.7851852,11.7037037 C11.6987654,11.8962963 10.7876543,11.2814815 10.0518519,9.85925926 C9.12107851,7.92575172 8.84045309,5.74310956 9.25185185,3.63703704 Z" id="头发" fill="url(#linearGradient-10)"></path>
                        <path d="M11.2962963,13.5481481 C10.8765432,15.1580247 11.3703704,15.9604938 12.7777778,15.9555556 C14.1851852,15.9506173 15.837037,15.1481481 17.7333333,13.5481481 C19.0342338,13.5364736 20.3216665,13.8121714 21.5037037,14.3555556 C22.7947303,15.265921 23.9538306,16.3502406 24.9481481,17.5777778 L27.8074074,20.6518519 C26.2666667,21.1851852 25.3111111,21.5481481 24.9481481,21.7333333 C24.4366457,22.1036005 24.0492728,22.6200977 23.837037,23.2148148 L5.6962963,41.1111111 L3.17037037,42.5925926 L0,40.5037037 C0.138271605,34.6271605 0.328395062,30.217284 0.57037037,27.2740741 C0.933333333,22.8296296 1.40740741,20.5111111 2.57777778,18.1851852 C3.74814815,15.8592593 6.42962963,14.9111111 7.76296296,14.3555556 C8.89779299,13.9245078 10.0868783,13.652788 11.2962963,13.5481481 L11.2962963,13.5481481 Z" id="上半身" fill="url(#linearGradient-11)"></path>
                        <path d="M0,40.5555556 C3.28888889,41.4518519 5.04444444,41.7185185 5.24444444,41.037037 C5.44444444,40.3555556 5.68888889,37.3333333 5.98518519,31.962963 C5.35802469,30.9753086 5.35802469,30.1234568 5.98518519,29.4074074 C6.61234568,28.691358 8.23950617,28.2296296 10.8666667,28.0222222 C12.0271605,26.4716049 13.091358,25.6098765 14.0592593,25.437037 C15.0271605,25.2641975 16.0790123,25.7407407 17.2148148,26.8666667 C18.1432099,24.2197531 20.037037,23.017284 22.8962963,23.2592593 C27.0814815,23.6074074 28.4296296,39.3037037 28.5925926,39.9851852 C29.1758761,42.6856951 29.5228661,45.4318726 29.6296296,48.1925926 C29.6296296,49.5777778 24.9777778,47.8888889 25.1851852,48.9333333 C25.4814815,50.5283951 24.2469136,51.8395062 21.4814815,52.8666667 L17.1851852,47.637037 C15.6074074,48 13.8296296,48.437037 11.8592593,48.9333333 C9.44548629,49.6727881 6.86562482,49.6727881 4.45185185,48.9333333 C2.34074074,48.237037 1.88888889,47.3555556 1.16296296,45.3925926 C0.627762106,43.8193318 0.238466539,42.2001598 0,40.5555556 Z" id="下半身" fill="url(#linearGradient-12)"></path>
                        <path d="M9.68148148,27.8518519 C9.68148148,27.8518519 11.9777778,34.0296296 13.837037,34.8518519 C15.8814815,35.7555556 17.6,34.1111111 18.5555556,33.8888889 C19.4531286,33.5542075 20.2853771,33.0653869 21.0148148,32.4444444 C22.0222222,31.6074074 22.437037,30.2222222 23.0814815,30.2222222 C23.7259259,30.2222222 22.7777778,32.0740741 23.0814815,32.0740741 C23.3851852,32.0740741 26.837037,30.0148148 26.837037,28.8296296 C26.837037,27.6444444 22.8148148,23.7481481 22.8814815,23.4518519 C22.9481481,23.1555556 24.8666667,20.6 26.2296296,20.8592593 C27.5925926,21.1185185 29.0074074,23.8222222 29.6444444,24.8074074 C31.0740741,27.0296296 32.0592593,29.6962963 31.4592593,30.9037037 C30.1111111,33.5925926 17.0518519,38.1703704 15.3333333,38.8148148 C13.6148148,39.4592593 12.9407407,39.7925926 11.3851852,39.1333333 C9.82962963,38.4740741 7.81481481,35.0666667 6.62962963,33.637037 C5.90176092,32.8350295 5.48182153,31.8009288 5.44444444,30.7185185 C5.44444444,29.0888889 6.18518519,28.7851852 6.65185185,28.4962963 C7.11851852,28.2074074 8.14814815,28.0444444 9.68148148,27.8518519 Z" id="路径" fill="#FDDCBD"></path>
                        <path d="M25.6444444,48.5777778 C25.962963,48.2666667 26.9703704,47.8814815 28.6592593,47.4296296 C29.3836033,47.658174 30.045285,48.0511267 30.5925926,48.5777778 C31.6222222,49.4962963 32.6,50.9185185 33.5555556,51.8296296 C34.361944,52.5260855 35.2747579,53.088779 36.2592593,53.4962963 C35.3300674,55.0691993 33.3927698,55.7296417 31.6962963,55.0518519 C29.7950617,54.4592593 27.4839506,52.9604938 24.762963,50.5555556 C24.8892464,49.8337074 25.1920601,49.154285 25.6444444,48.5777778 L25.6444444,48.5777778 Z" id="鞋子" fill="url(#linearGradient-13)"></path>
                        <path d="M21.4148148,52.8148148 C21.7333333,52.5037037 22.7333333,52.1185185 24.4222222,51.6592593 C25.1455221,51.89381 25.8064395,52.2888411 26.3555556,52.8148148 C27.3851852,53.7333333 28.3703704,55.1555556 29.362963,56.0666667 C30.1689528,56.7580031 31.0788863,57.3179622 32.0592593,57.7259259 C31.1324192,59.3016034 29.1945764,59.9653775 27.4962963,59.2888889 C25.6,58.6962963 23.291358,57.1975309 20.5703704,54.7925926 C20.6857069,54.074147 20.9756764,53.3950079 21.4148148,52.8148148 L21.4148148,52.8148148 Z" id="路径" fill="url(#linearGradient-14)"></path>
                    </g>
                    <g id="编组-9" transform="translate(138.000000, 15.000000)" fill-rule="nonzero">
                        <g id="编组-8">
                            <path d="M17.0601884,2.12370477 C10.2342584,2.11971502 4.07839292,6.17824723 1.46435478,12.4059652 C-1.14968335,18.6336831 0.293183439,25.8034592 5.11984573,30.5705331 C9.94650802,35.337607 17.2059064,36.7626606 23.5114708,34.1808945 C29.8170352,31.5991285 33.926299,25.5192614 33.9222594,18.777602 L17.0601884,18.777602 L17.0601884,2.12370477 Z" id="路径" fill="url(#linearGradient-15)"></path>
                            <path d="M17.0601884,2.12370477 C10.2342584,2.11971502 4.07839292,6.17824723 1.46435478,12.4059652 C-1.14968335,18.6336831 0.293183439,25.8034592 5.11984573,30.5705331 C9.94650802,35.337607 17.2059064,36.7626606 23.5114708,34.1808945 C29.8170352,31.5991285 33.926299,25.5192614 33.9222594,18.777602 L17.0601884,18.777602 L17.0601884,2.12370477 Z" id="路径" fill-opacity="0" fill="url(#linearGradient-15)" filter="url(#filter-16)"></path>
                            <path d="M19.3412509,0.0407035443 L19.3412509,16.7047133 L36.4218609,16.7047133 C36.4218609,7.50143485 28.7746113,0.0407035443 19.3412509,0.0407035443 L19.3412509,0.0407035443 Z" id="路径" fill="url(#linearGradient-17)"></path>
                            <path d="M19.3412509,0.0407035443 L19.3412509,16.7047133 L36.4218609,16.7047133 C36.4218609,7.50143485 28.7746113,0.0407035443 19.3412509,0.0407035443 L19.3412509,0.0407035443 Z" id="路径" fill-opacity="0.55" fill="url(#linearGradient-17)" opacity="0.717401414"></path>
                        </g>
                    </g>
                </g>
            </g>
        </g>
    </g>
</svg>